<?xml version="1.0" encoding="UTF-8" standalone="no"?>
<!-- Created with Inkscape (http://www.inkscape.org/) -->

<svg
   xmlns:dc="http://purl.org/dc/elements/1.1/"
   xmlns:cc="http://creativecommons.org/ns#"
   xmlns:rdf="http://www.w3.org/1999/02/22-rdf-syntax-ns#"
   xmlns:svg="http://www.w3.org/2000/svg"
   xmlns="http://www.w3.org/2000/svg"
   xmlns:sodipodi="http://sodipodi.sourceforge.net/DTD/sodipodi-0.dtd"
   xmlns:inkscape="http://www.inkscape.org/namespaces/inkscape"
   width="230mm"
   height="90mm"
   viewBox="0 0 814.96063 318.89763"
   id="svg2"
   version="1.1"
   inkscape:version="0.91 r13725"
   sodipodi:docname="LLGL_Logo2b.svg"
   inkscape:export-filename="D:\Entwicklung\C++\HLC\Tools\LLGL\misc\LLGL_Logo2b.png"
   inkscape:export-xdpi="90"
   inkscape:export-ydpi="90">
  <defs
     id="defs4" />
  <sodipodi:namedview
     id="base"
     pagecolor="#ffffff"
     bordercolor="#666666"
     borderopacity="1.0"
     inkscape:pageopacity="0.0"
     inkscape:pageshadow="2"
     inkscape:zoom="1"
     inkscape:cx="365.95875"
     inkscape:cy="222.35243"
     inkscape:document-units="px"
     inkscape:current-layer="layer1"
     showgrid="false"
     inkscape:window-width="1920"
     inkscape:window-height="1017"
     inkscape:window-x="-8"
     inkscape:window-y="-8"
     inkscape:window-maximized="1" />
  <metadata
     id="metadata7">
    <rdf:RDF>
      <cc:Work
         rdf:about="">
        <dc:format>image/svg+xml</dc:format>
        <dc:type
           rdf:resource="http://purl.org/dc/dcmitype/StillImage" />
        <dc:title></dc:title>
      </cc:Work>
    </rdf:RDF>
  </metadata>
  <g
     inkscape:label="Ebene 1"
     inkscape:groupmode="layer"
     id="layer1"
     transform="translate(0,-733.46457)">
    <g
       transform="matrix(0.89876612,0,0,1.1126365,-104.59798,602.1005)"
       style="font-style:normal;font-weight:normal;font-size:118.99004364px;line-height:125%;font-family:sans-serif;letter-spacing:0px;word-spacing:0px;fill:#000000;fill-opacity:1;stroke:none;stroke-width:1px;stroke-linecap:butt;stroke-linejoin:miter;stroke-opacity:1"
       id="text3336">
      <path
         d="m 251.90201,350.62305 -109.46155,0 0,-173.02361 23.00784,0 0,152.57219 86.45371,0 0,20.45142 z"
         style="fill:#800000;fill-opacity:1"
         id="path4155"
         inkscape:connector-curvature="0" />
      <path
         d="m 384.3714,350.62305 -109.46155,0 0,-173.02361 23.00784,0 0,152.57219 86.45371,0 0,20.45142 z"
         style="fill:#800000;fill-opacity:1"
         id="path4157"
         inkscape:connector-curvature="0" />
      <path
         d="m 559.25423,340.74594 q -11.62012,4.53185 -30.79332,9.0637 -19.1732,4.41564 -38.2302,4.41564 -44.15646,0 -69.13972,-23.93745 -24.98326,-24.05365 -24.98326,-66.35089 0,-40.32182 25.21566,-64.95648 25.21566,-24.75086 70.30173,-24.75086 17.08158,0 32.53634,3.13744 15.45476,3.02123 34.39556,12.20112 l 0,40.55423 -4.99665,0 q -3.25363,-2.44023 -9.5285,-6.85587 -6.27486,-4.53185 -12.08493,-7.66928 -6.73967,-3.71844 -15.80336,-6.39107 -8.94749,-2.67263 -19.057,-2.67263 -11.85252,0 -21.49722,3.48604 -9.64471,3.48603 -17.31399,10.69051 -7.32067,6.97207 -11.62012,17.77878 -4.18324,10.69052 -4.18324,24.75086 0,28.7017 15.22236,43.92406 15.22236,15.22236 44.96987,15.22236 2.55643,0 5.57766,-0.1162 3.13743,-0.1162 5.69386,-0.3486 l 0,-33.93076 -34.51176,0 0,-32.65254 79.83023,0 0,85.40789 z"
         style="font-weight:bold;fill:#50c550;fill-opacity:1"
         id="path4159"
         inkscape:connector-curvature="0" />
      <path
         d="m 723.91135,350.62305 -124.80011,0 0,-173.02361 44.62127,0 0,139.55766 80.17884,0 0,33.46595 z"
         style="font-weight:bold;fill:#50c550;fill-opacity:1"
         id="path4161"
         inkscape:connector-curvature="0" />
    </g>
    <flowRoot
       xml:space="preserve"
       id="flowRoot3340"
       style="font-style:normal;font-weight:normal;font-size:40px;line-height:125%;font-family:sans-serif;letter-spacing:0px;word-spacing:0px;fill:#000000;fill-opacity:1;stroke:none;stroke-width:1px;stroke-linecap:butt;stroke-linejoin:miter;stroke-opacity:1"
       transform="translate(14.40202,378.10051)"><flowRegion
         id="flowRegion3342"><rect
           id="rect3344"
           width="75.761444"
           height="52.527931"
           x="175.76654"
           y="221.00665" /></flowRegion><flowPara
         id="flowPara3346" /></flowRoot>    <path
       inkscape:connector-curvature="0"
       d="m 398.00301,981.3857 c -6.96251,3.36153 -16.18784,6.72307 -27.676,10.0846 -11.48814,3.2753 -22.9421,5.0317 -34.36001,4.913 -17.17184,-0.1786 -42.42882,-9.13043 -57.39822,-26.88622 -14.9694,-17.84198 -21.89302,-41.94504 -21.89302,-73.31934 0,-29.90901 7.04925,-50.96954 22.1579,-69.24249 15.10866,-18.35914 33.13981,-28.04379 60.15436,-28.04379 10.2349,0 21.22344,-0.12206 30.48358,2.20516 10.21034,2.15174 16.55588,5.27391 27.90478,12.08317 l 0,45.12211 -2.49082,0 c -1.9495,-1.81006 -4.27875,-4.98411 -8.03851,-8.25944 -3.75976,-3.36153 -8.39042,-7.21606 -11.87168,-9.54327 -4.03826,-2.75818 -9.0253,-5.00222 -14.45606,-6.98467 -5.36114,-1.98244 -12.20682,-2.08978 -18.26421,-2.08978 -7.10176,0 -13.66836,1.92425 -19.44725,4.51004 -5.77888,2.58579 -10.96596,6.55068 -15.56122,11.89465 -4.38638,5.17159 -7.86763,11.76536 -10.44377,19.78132 -2.5065,7.92978 -3.75976,17.10935 -3.75976,27.53871 0,21.28971 4.56045,37.58021 13.68134,48.87151 9.1209,11.29131 22.59336,16.93696 40.4174,16.93696 1.53176,0 3.20276,-0.0431 5.01301,-0.12929 1.87988,-0.0862 7.5857,-0.21548 9.11745,-0.38787 l 0,-37.7526 -31.018,0 0,-36.3304 67.74871,0 z"
       style="font-style:normal;font-weight:bold;font-size:118.99004364px;line-height:125%;font-family:sans-serif;letter-spacing:0px;word-spacing:0px;fill:#3c803c;fill-opacity:1;stroke:none;stroke-width:1px;stroke-linecap:butt;stroke-linejoin:miter;stroke-opacity:1"
       id="path4159-2"
       sodipodi:nodetypes="ccscscscccccccssccsssccccccc" />
    <path
       inkscape:connector-curvature="0"
       d="m 550.05149,992.2178 -112.16611,0 0,-192.5124 40.10408,0 0,155.27695 72.06203,0 0,37.23545 z"
       style="font-style:normal;font-weight:bold;font-size:118.99004364px;line-height:125%;font-family:sans-serif;letter-spacing:0px;word-spacing:0px;fill:#3c803c;fill-opacity:1;stroke:none;stroke-width:1px;stroke-linecap:butt;stroke-linejoin:miter;stroke-opacity:1"
       id="path4161-8" />
    <path
       style="fill:#7f87fa;fill-opacity:1"
       d="m 680.27283,1016.9469 c -5.63074,-24.6489 -9.53663,-47.61244 -10.90435,-63.60064 -1.13336,-13.2487 -0.212,-22.6343 2.82862,-28.8146 1.93344,-3.9299 4.56355,-6.3024 7.71089,-6.9556 1.0996,-0.2282 2.7034,-0.1233 3.73017,0.1051 3.00373,0.6683 4.93205,2.7507 6.91453,6.8554 3.08393,6.2866 4.72678,15.6899 3.68508,28.4561 -1.26691,16.0659 -5.79713,39.25614 -11.63955,63.94904 -0.58927,2.4905 -0.73572,3.5577 -1.1566,3.6236 -0.36803,-0.062 -0.59732,-1.1167 -1.16879,-3.6184 z"
       id="path4201"
       inkscape:connector-curvature="0"
       sodipodi:nodetypes="sssssccscs" />
    <path
       style="fill:#255b6f;fill-opacity:1"
       d="m 680.39484,1016.9876 c -4.06823,-26.3364 -6.65712,-47.08964 -8.02485,-63.07794 -1.13336,-13.2486 0.33499,-22.7351 2.96435,-29.1012 1.5136,-3.6647 3.40932,-5.6979 5.12656,-6.5439 1.28996,-0.6356 2.72274,-0.5227 3.57392,-0.3217 2.66129,0.6283 4.5343,2.4855 6.51678,6.5902 3.08393,6.2866 4.72679,15.6899 3.68508,28.4561 -1.26691,16.0659 -5.79713,39.25614 -11.63955,63.94904 -0.58927,2.4905 -0.73572,3.5577 -1.1566,3.6236 -0.36803,-0.062 -0.65395,-1.0381 -1.04569,-3.5742 z"
       id="path4201-0"
       inkscape:connector-curvature="0"
       sodipodi:nodetypes="sssssccscs" />
    <path
       style="fill:#7f87fa;fill-opacity:1"
       d="m 574.71139,956.23786 c 18.53123,-17.2008 36.46524,-32.0651 49.62762,-41.2437 10.90699,-7.6059 19.49589,-11.5008 26.36849,-11.9577 4.37006,-0.2905 7.73975,0.801 9.87911,3.2001 0.74744,0.8382 1.45852,2.2795 1.77408,3.2829 0.92317,2.9355 0.0838,5.6467 -2.47963,9.4159 -3.90241,5.8141 -11.22446,11.9385 -22.8012,17.4194 -14.54698,6.9358 -36.89533,14.6076 -61.20121,21.8944 -2.45151,0.7349 -3.44896,1.1417 -3.71648,0.8101 -0.13023,-0.3497 0.66848,-1.0756 2.54922,-2.8214 z"
       id="path4201-01"
       inkscape:connector-curvature="0"
       sodipodi:nodetypes="sssssccscs" />
    <path
       style="fill:#255b6f;fill-opacity:1"
       d="m 574.73716,956.36396 c 20.7739,-16.6914 37.45228,-29.3101 50.61466,-38.4887 10.90698,-7.6059 19.85663,-11.0774 26.68456,-11.9834 3.9305,-0.5216 6.63914,0.1036 8.23048,1.1677 1.19539,0.7994 1.81401,2.0967 2.06556,2.9343 0.78651,2.6189 0.11461,5.1696 -2.44887,8.9388 -3.9024,5.8141 -11.22445,11.9385 -22.80121,17.4194 -14.54696,6.9358 -36.89533,14.6076 -61.20121,21.8944 -2.45149,0.7349 -3.44894,1.1417 -3.71647,0.8101 -0.13023,-0.3497 0.57215,-1.0853 2.5725,-2.6926 z"
       id="path4201-0-7"
       inkscape:connector-curvature="0"
       sodipodi:nodetypes="sssssccscs" />
    <path
       style="fill:#7f87fa;fill-opacity:1"
       d="m 573.97082,832.85375 c 24.16196,7.4481 46.00187,15.54721 60.53197,22.35691 12.04034,5.6428 19.70788,11.1336 23.53986,16.857 2.43663,3.6393 3.1762,7.1033 2.16822,10.1556 -0.35215,1.0664 -1.24488,2.4029 -1.95608,3.1778 -2.08057,2.2672 -4.84824,2.8959 -9.39417,2.5605 -6.98634,-0.4725 -15.95125,-3.7514 -26.48629,-11.0367 -13.28006,-9.1301 -31.09819,-24.6485 -49.56164,-42.05463 -1.86224,-1.75559 -2.71325,-2.41602 -2.55989,-2.81347 0.2378,-0.28767 1.26578,0.0411 3.71802,0.79699 z"
       id="path4201-01-7"
       inkscape:connector-curvature="0"
       sodipodi:nodetypes="sssssccscs" />
    <path
       style="fill:#255b6f;fill-opacity:1"
       d="m 573.87456,832.93908 c 24.84214,9.64502 44.10941,17.77958 58.63952,24.58928 12.04034,5.6428 19.52164,11.6576 23.72021,17.1178 2.4169,3.1431 3.22982,5.8015 3.10393,7.7117 -0.0946,1.4349 -0.90874,2.6193 -1.50838,3.2559 -1.87477,1.9906 -4.41968,2.6841 -8.96564,2.3486 -6.98633,-0.4725 -15.95125,-3.7514 -26.48629,-11.0367 -13.28006,-9.1301 -31.0982,-24.6485 -49.56166,-42.05462 -1.86222,-1.75558 -2.71322,-2.41602 -2.55987,-2.81347 0.2378,-0.28767 1.22606,-0.0472 3.61818,0.88151 z"
       id="path4201-0-7-8"
       inkscape:connector-curvature="0"
       sodipodi:nodetypes="sssssccscs" />
    <path
       style="fill:#7f87fa;fill-opacity:1"
       d="m 682.61056,775.73009 c 5.63074,24.64893 9.53663,47.61241 10.90435,63.60067 1.13335,13.2487 0.212,22.6344 -2.82862,28.8147 -1.93343,3.9298 -4.56356,6.3023 -7.7109,6.9555 -1.09959,0.2282 -2.7034,0.1233 -3.73016,-0.1051 -3.00374,-0.6682 -4.93203,-2.7507 -6.91453,-6.8553 -3.08393,-6.2866 -4.72679,-15.6899 -3.68509,-28.45624 1.26692,-16.06595 5.79714,-39.25607 11.63956,-63.94896 0.58927,-2.49054 0.73571,-3.55775 1.15659,-3.62366 0.36803,0.0621 0.5973,1.11675 1.1688,3.61839 z"
       id="path4201-01-7-8"
       inkscape:connector-curvature="0"
       sodipodi:nodetypes="sssssccscs" />
    <path
       style="fill:#255b6f;fill-opacity:1"
       d="m 682.48853,775.6894 c 4.06824,26.33643 6.65713,47.08966 8.02487,63.07792 1.13336,13.24874 -0.335,22.73514 -2.96436,29.10124 -1.5136,3.6647 -3.40932,5.6979 -5.12654,6.544 -1.28999,0.6355 -2.72275,0.5226 -3.57395,0.3217 -2.66127,-0.6284 -4.53428,-2.4856 -6.51676,-6.5902 -3.08394,-6.2866 -4.7268,-15.6899 -3.68509,-28.45624 1.26691,-16.06594 5.79713,-39.25608 11.63955,-63.94897 0.58927,-2.49052 0.73573,-3.55772 1.1566,-3.62364 0.36803,0.0621 0.65391,1.03819 1.04568,3.57419 z"
       id="path4201-0-7-8-6"
       inkscape:connector-curvature="0"
       sodipodi:nodetypes="sssssccscs" />
    <path
       style="fill:#7f87fa;fill-opacity:1"
       d="m 791.57895,832.70692 c -18.53123,17.20084 -36.46524,32.06514 -49.62762,41.24374 -10.90699,7.6059 -19.49588,11.5008 -26.36848,11.9577 -4.37006,0.2905 -7.73976,-0.801 -9.87912,-3.2001 -0.74744,-0.8382 -1.45852,-2.2795 -1.77408,-3.2829 -0.92317,-2.9355 -0.0838,-5.6467 2.47964,-9.4159 3.90241,-5.814 11.22445,-11.9384 22.8012,-17.4194 14.54698,-6.9358 36.89533,-14.60759 61.20121,-21.89435 2.4515,-0.73495 3.44895,-1.14173 3.71647,-0.81019 0.13024,0.34977 -0.66848,1.07565 -2.54922,2.8214 z"
       id="path4201-01-7-8-7"
       inkscape:connector-curvature="0"
       sodipodi:nodetypes="sssssccscs" />
    <path
       style="fill:#255b6f;fill-opacity:1"
       d="m 791.55318,832.58089 c -20.7739,16.69137 -37.45228,29.31007 -50.61465,38.48867 -10.90699,7.6059 -19.85664,11.0774 -26.68457,11.9834 -3.9305,0.5215 -6.63914,-0.1036 -8.23047,-1.1677 -1.19539,-0.7994 -1.81401,-2.0967 -2.06557,-2.9343 -0.7865,-2.6189 -0.1146,-5.1696 2.44888,-8.9388 3.9024,-5.8141 11.22445,-11.9385 22.80121,-17.4194 14.54696,-6.9358 36.89532,-14.60761 61.2012,-21.89437 2.45149,-0.73494 3.44894,-1.1417 3.71647,-0.81018 0.13023,0.34978 -0.57215,1.0854 -2.5725,2.69268 z"
       id="path4201-0-7-8-6-5"
       inkscape:connector-curvature="0"
       sodipodi:nodetypes="sssssccscs" />
    <path
       style="fill:#7f87fa;fill-opacity:1"
       d="m 788.6035,958.82216 c -24.16196,-7.4481 -46.00187,-15.5472 -60.53197,-22.3568 -12.04033,-5.6429 -19.70788,-11.1336 -23.53986,-16.857 -2.43662,-3.6393 -3.1762,-7.1033 -2.16821,-10.1556 0.35214,-1.0664 1.24487,-2.4029 1.95607,-3.1779 2.08058,-2.2672 4.84824,-2.8959 9.39417,-2.5605 6.98634,0.4726 15.95124,3.7515 26.4863,11.0367 13.28006,9.1302 31.09819,24.6485 49.56164,42.0547 1.86223,1.7556 2.71324,2.416 2.55988,2.8134 -0.23779,0.2877 -1.26578,-0.041 -3.71802,-0.797 z"
       id="path4201-01-7-8-7-1"
       inkscape:connector-curvature="0"
       sodipodi:nodetypes="sssssccscs" />
    <path
       style="fill:#255b6f;fill-opacity:1"
       d="m 788.69976,958.73686 c -24.84213,-9.645 -44.10941,-17.7796 -58.63952,-24.5892 -12.04035,-5.6428 -19.52164,-11.6577 -23.72021,-17.1178 -2.4169,-3.1432 -3.22982,-5.8015 -3.10393,-7.7117 0.0946,-1.4349 0.90874,-2.6193 1.50838,-3.256 1.87477,-1.9906 4.41968,-2.684 8.96565,-2.3486 6.98633,0.4726 15.95124,3.7514 26.48629,11.0367 13.28006,9.1302 31.0982,24.6485 49.56165,42.0547 1.86222,1.7555 2.71321,2.416 2.55987,2.8134 -0.2378,0.2877 -1.22605,0.047 -3.61818,-0.8815 z"
       id="path4201-0-7-8-6-5-4"
       inkscape:connector-curvature="0"
       sodipodi:nodetypes="sssssccscs" />
    <circle
       style="fill:#7f87fa;fill-opacity:1"
       id="path4308"
       cx="681.44489"
       cy="897.25244"
       r="15" />
    <path
       style="fill:#255b6f;fill-opacity:1"
       d="m 696.44501,897.25219 c 0,8.28427 -6.71573,15 -15,15 -5.47177,0 -11.78125,-6.68448 -11.78125,-14.96875 0,-8.28427 6.49698,-15.03125 11.78125,-15.03125 8.28427,0 15,6.71573 15,15 z"
       id="path4308-0"
       inkscape:connector-curvature="0"
       sodipodi:nodetypes="sssss" />
  </g>
</svg>
