# Blender 4.3.2
# www.blender.org
o Book_Page_Animated
v -1.136910 0.962898 0.935585
v -1.146175 1.016721 -0.916092
v -0.000494 0.302533 0.926234
v 0.000494 0.309627 -0.926234
v -0.547166 0.472854 -0.925389
v -0.545591 0.464590 0.927075
v -1.235068 0.515429 -0.924575
v -0.140818 0.402798 0.926530
v -0.140607 0.410325 -0.925937
v -1.223023 0.499445 0.927767
v -1.342340 0.859377 -0.918898
v -0.055783 0.336646 0.926336
v -0.304313 0.467294 -0.925676
v -0.861010 0.442962 0.927011
v -0.862289 0.451328 -0.925451
v -0.302942 0.459170 0.926788
v -0.054795 0.343740 -0.926133
v -1.325273 0.818716 0.933020
v -1.254999 0.965950 -0.917043
v -0.025788 0.317827 0.926279
v -0.413617 0.483599 -0.925524
v -0.695330 0.455097 0.927129
v -1.044530 0.454191 -0.925462
v -0.208926 0.434331 0.926650
v -0.093304 0.369112 -0.926057
v -1.328781 0.639331 0.930006
v -1.346523 0.666046 -0.922156
v -0.094292 0.362018 0.926412
v -0.208715 0.441859 -0.925817
v -1.039813 0.444576 0.926982
v -0.695562 0.463334 -0.925335
v -0.412246 0.475475 0.926940
v -0.024800 0.324921 -0.926189
v -1.240135 0.918630 0.934756
vn 0.4090 -0.9121 -0.0276
vn 0.5174 0.8557 0.0036
vn -0.0722 0.9974 0.0045
vn 0.5771 0.8166 0.0030
vn 0.5446 0.8387 0.0035
vn 0.5767 0.8169 0.0030
vn 0.9364 -0.3506 -0.0168
vn 0.5409 0.8411 0.0035
vn 0.2022 0.9793 0.0041
vn -0.0301 0.9995 0.0047
vn -0.0300 0.9995 0.0047
vn 0.9366 -0.3501 -0.0167
vn 0.6039 -0.7967 -0.0254
vn 0.5245 0.8514 0.0035
vn 0.0336 0.9994 0.0044
vn -0.0680 0.9977 0.0045
vn 0.1563 0.9877 0.0051
vn 0.3395 0.9406 0.0039
vn 0.6055 0.7958 0.0033
vn 0.9520 0.3060 -0.0049
vn 0.9521 0.3056 -0.0049
vn 0.6055 0.7959 0.0033
vn 0.1561 0.9877 0.0051
vn 0.6035 -0.7970 -0.0254
s 1
f 3//2 4//2 33//14 20//14
f 33//14 17//8 12//8 20//14
f 28//22 12//8 17//8 25//19
f 25//19 9//5 8//5 28//22
f 24//18 8//5 9//5 29//18
f 29//18 13//9 16//9 24//18
f 32//15 16//9 13//9 21//15
f 21//15 5//3 6//3 32//15
f 22//16 6//3 5//3 31//16
f 31//16 15//11 14//10 22//16
f 30//23 14//10 15//11 23//17
f 23//17 7//4 10//6 30//23
f 26//20 10//6 7//4 27//21
f 27//21 11//7 18//12 26//20
f 34//24 18//12 11//7 19//13
f 19//13 2//1 1//1 34//24
