# Blender 4.3.2
# www.blender.org
o Book_Page_Animated
v 0.670061 0.611413 0.939109
v 0.711049 0.618536 -0.912906
v -0.000963 0.302967 0.926236
v 0.000963 0.309193 -0.926236
v -0.240140 0.824521 -0.924845
v -0.242556 0.818193 0.927625
v 0.293778 1.042423 -0.918900
v -0.106282 0.438179 0.926579
v -0.104396 0.444472 -0.925892
v 0.263690 1.026869 0.933266
v 0.555859 0.825428 -0.915510
v -0.042554 0.352874 0.926360
v -0.206199 0.584799 -0.925498
v -0.086596 1.085599 0.929314
v -0.073487 1.099791 -0.923041
v -0.208210 0.579025 0.926975
v -0.040629 0.359100 -0.926111
v 0.517269 0.815923 0.936542
v 0.639297 0.708955 -0.914150
v -0.020090 0.325503 0.926291
v -0.241822 0.690581 -0.925207
v -0.200577 0.965136 0.928081
v 0.120669 1.115948 -0.920888
v -0.150252 0.501385 0.926749
v -0.069085 0.395389 -0.926019
v 0.407853 0.928511 0.935037
v 0.443261 0.940758 -0.917061
v -0.071011 0.389163 0.926452
v -0.148366 0.507678 -0.925722
v 0.097967 1.099130 0.931363
v -0.192938 0.977331 -0.924333
v -0.243832 0.684808 0.927265
v -0.018164 0.331728 -0.926180
v 0.598799 0.701261 0.937874
vn -0.7831 -0.6216 -0.0197
vn 0.7624 0.6471 0.0030
vn 0.9887 -0.1496 0.0012
vn 0.9888 -0.1495 0.0012
vn -0.4811 -0.8765 -0.0150
vn 0.8163 0.5776 0.0028
vn -0.7671 -0.6412 -0.0193
vn 0.7800 0.6258 0.0029
vn 0.8853 0.4650 0.0024
vn 0.4275 -0.9040 -0.0045
vn 0.4276 -0.9039 -0.0045
vn 0.8853 0.4649 0.0024
vn -0.7987 -0.6015 -0.0199
vn 0.7677 0.6408 0.0030
vn 0.9877 0.1562 0.0016
vn 0.8643 -0.5029 0.0001
vn -0.1631 -0.9865 -0.0109
vn 0.8109 0.5851 0.0028
vn 0.7995 0.6007 0.0029
vn -0.6426 -0.7660 -0.0174
vn -0.6427 -0.7659 -0.0174
vn -0.1633 -0.9865 -0.0109
vn 0.8640 -0.5035 0.0001
vn 0.9877 0.1563 0.0016
s 1
f 3//2 4//2 33//14 20//14
f 33//14 17//8 12//8 20//14
f 28//19 12//8 17//8 25//19
f 25//19 9//6 8//6 28//19
f 24//18 8//6 9//6 29//18
f 29//18 13//9 16//12 24//18
f 32//24 16//12 13//9 21//15
f 21//15 5//3 6//4 32//24
f 22//16 6//4 5//3 31//23
f 31//23 15//11 14//10 22//16
f 30//22 14//10 15//11 23//17
f 23//17 7//5 10//5 30//22
f 26//20 10//5 7//5 27//21
f 27//21 11//7 18//7 26//20
f 34//13 18//7 11//7 19//13
f 19//13 2//1 1//1 34//13
