# Blender 4.3.2
# www.blender.org
o Book_Page_Animated
v -0.311799 0.904582 0.933560
v -0.274107 0.934631 -0.918295
v -0.000640 0.302640 0.926235
v 0.000640 0.309520 -0.926235
v -0.502790 0.606238 -0.925127
v -0.502355 0.598164 0.927338
v -0.760776 1.149440 -0.919083
v -0.132039 0.413282 0.926545
v -0.131229 0.420538 -0.925923
v -0.762435 1.111658 0.932962
v -0.390173 1.160969 -0.916281
v -0.052585 0.341657 0.926344
v -0.278985 0.509423 -0.925605
v -0.775506 0.762850 0.928209
v -0.780667 0.778337 -0.924183
v -0.278879 0.501538 0.926860
v -0.051304 0.348537 -0.926126
v -0.417422 1.121239 0.935539
v -0.305393 1.049958 -0.917081
v -0.024433 0.320179 0.926283
v -0.379076 0.559706 -0.925386
v -0.640028 0.657612 0.927505
v -0.844784 0.965686 -0.922063
v -0.194923 0.456172 0.926686
v -0.087337 0.377317 -0.926044
v -0.585795 1.170700 0.934958
v -0.571540 1.214195 -0.916918
v -0.088618 0.370437 0.926426
v -0.194113 0.463428 -0.925783
v -0.839298 0.939087 0.930182
v -0.643102 0.668237 -0.924940
v -0.378970 0.551820 0.927080
v -0.023152 0.327058 -0.926186
v -0.338464 1.013759 0.934737
vn -0.9681 -0.2496 -0.0230
vn 0.5933 0.8049 0.0034
vn 0.3762 0.9265 0.0041
vn 0.6717 -0.7407 -0.0150
vn 0.6353 0.7723 0.0033
vn 0.6719 -0.7405 -0.0150
vn -0.5701 -0.8211 -0.0264
vn 0.6154 0.7882 0.0034
vn 0.4625 0.8866 0.0037
vn 0.8134 0.5817 0.0027
vn 0.8136 0.5815 0.0027
vn -0.5697 -0.8214 -0.0264
vn -0.9011 -0.4329 -0.0246
vn 0.6000 0.8000 0.0034
vn 0.4009 0.9161 0.0039
vn 0.5139 0.8578 0.0042
vn 0.9991 -0.0429 -0.0038
vn 0.5204 0.8539 0.0036
vn 0.6639 0.7478 0.0032
vn 0.0206 -0.9995 -0.0231
vn 0.0204 -0.9995 -0.0231
vn 0.9991 -0.0427 -0.0038
vn 0.5141 0.8577 0.0042
vn -0.9013 -0.4325 -0.0246
s 1
f 3//2 4//2 33//14 20//14
f 33//14 17//8 12//8 20//14
f 28//19 12//8 17//8 25//19
f 25//19 9//5 8//5 28//19
f 24//18 8//5 9//5 29//18
f 29//18 13//9 16//9 24//18
f 32//15 16//9 13//9 21//15
f 21//15 5//3 6//3 32//15
f 22//16 6//3 5//3 31//23
f 31//23 15//11 14//10 22//16
f 30//22 14//10 15//11 23//17
f 23//17 7//4 10//6 30//22
f 26//20 10//6 7//4 27//21
f 27//21 11//7 18//12 26//20
f 34//24 18//12 11//7 19//13
f 19//13 2//1 1//1 34//24
