# Blender 4.3.2
# www.blender.org
o Book_Page_Animated
v 1.750525 0.261567 0.926444
v 1.746917 0.262248 -0.926035
v -0.000614 0.305757 0.926241
v 0.000614 0.306403 -0.926241
v 0.528371 0.518324 -0.925979
v 0.527901 0.518054 0.926504
v 1.166213 0.314134 -0.925449
v 0.133826 0.412412 0.926370
v 0.134895 0.412978 -0.926112
v 1.166029 0.313689 0.927033
v 1.491844 0.247973 -0.925619
v 0.049383 0.347241 0.926289
v 0.286476 0.495051 -0.926003
v 0.832198 0.441570 0.926717
v 0.833817 0.441551 -0.925765
v 0.285993 0.494645 0.926480
v 0.050611 0.347887 -0.926193
v 1.494032 0.247213 0.926862
v 1.633124 0.247833 -0.925814
v 0.021963 0.324836 0.926263
v 0.395597 0.521507 -0.925969
v 0.674463 0.492198 0.926551
v 0.997507 0.372141 -0.925523
v 0.199776 0.452026 0.926420
v 0.086961 0.376265 -0.926159
v 1.334899 0.272794 0.926963
v 1.333897 0.273516 -0.925519
v 0.085733 0.375619 0.926323
v 0.200844 0.452592 -0.926062
v 0.996199 0.372043 0.926959
v 0.676066 0.492171 -0.925931
v 0.395114 0.521101 0.926514
v 0.023191 0.325482 -0.926219
v 1.635881 0.247079 0.926666
vn 0.1255 -0.9921 -0.0006
vn 0.6455 -0.7638 0.0002
vn -0.0990 -0.9951 -0.0002
vn -0.2805 -0.9598 -0.0003
vn 0.5623 -0.8270 0.0001
vn -0.0803 -0.9968 -0.0003
vn 0.6241 -0.7813 0.0001
vn 0.3418 -0.9398 -0.0001
vn -0.3483 -0.9374 -0.0003
vn 0.3417 -0.9398 -0.0001
vn 0.0624 -0.9981 -0.0005
vn 0.6391 -0.7691 0.0002
vn 0.1070 -0.9943 -0.0002
vn -0.2404 -0.9707 -0.0002
vn -0.3579 -0.9337 -0.0003
vn 0.4797 -0.8774 -0.0000
vn 0.6116 -0.7912 0.0001
vn -0.1974 -0.9803 -0.0003
vn -0.3579 -0.9338 -0.0003
s 1
f 3//2 4//2 33//12 20//12
f 33//12 17//7 12//7 20//12
f 28//17 12//7 17//7 25//17
f 25//17 9//5 8//5 28//17
f 24//16 8//5 9//5 29//16
f 29//16 13//8 16//10 24//16
f 32//13 16//10 13//8 21//13
f 21//13 5//3 6//3 32//13
f 22//14 6//3 5//3 31//14
f 31//14 15//9 14//9 22//14
f 30//19 14//9 15//9 23//15
f 23//15 7//4 10//4 30//19
f 26//18 10//4 7//4 27//18
f 27//18 11//6 18//6 26//18
f 34//11 18//6 11//6 19//11
f 19//11 2//1 1//1 34//11
