# Blender 4.3.2
# www.blender.org
o Book_Page_Animated
v -1.814024 0.205668 0.924700
v -1.817939 0.212772 -0.927765
v -0.000024 0.311971 0.926234
v 0.000024 0.319523 -0.926234
v -0.575016 0.417973 -0.925491
v -0.573588 0.409902 0.926974
v -1.230766 0.291928 -0.927202
v -0.161709 0.369954 0.926456
v -0.162228 0.377694 -0.926010
v -1.234929 0.283385 0.925255
v -1.560987 0.231609 -0.928024
v -0.062298 0.330481 0.926307
v -0.331644 0.410544 -0.925793
v -0.889115 0.377664 0.926795
v -0.886242 0.386116 -0.925664
v -0.330007 0.402532 0.926672
v -0.062249 0.338032 -0.926160
v -1.560571 0.223944 0.924441
v -1.701803 0.217105 -0.928003
v -0.028432 0.320137 0.926266
v -0.442907 0.421870 -0.925646
v -0.724525 0.399247 0.927040
v -1.057603 0.339857 -0.926409
v -0.235577 0.388390 0.926554
v -0.106043 0.352481 -0.926102
v -1.403744 0.251347 0.924759
v -1.401238 0.259537 -0.927703
v -0.106091 0.344929 0.926365
v -0.236096 0.396129 -0.925912
v -1.062316 0.331193 0.926048
v -0.722991 0.407500 -0.925423
v -0.441270 0.413857 0.926819
v -0.028384 0.327689 -0.926201
v -1.700136 0.209659 0.924463
vn -0.0362 0.9993 0.0040
vn 0.2763 0.9611 0.0039
vn -0.0501 0.9987 0.0044
vn -0.2269 0.9739 0.0040
vn 0.3273 0.9449 0.0039
vn -0.1372 0.9905 0.0041
vn 0.3027 0.9531 0.0039
vn 0.1250 0.9921 0.0042
vn -0.1953 0.9807 0.0041
vn -0.1954 0.9807 0.0041
vn -0.1373 0.9905 0.0041
vn -0.0692 0.9976 0.0040
vn 0.2842 0.9588 0.0039
vn 0.0359 0.9993 0.0043
vn -0.1003 0.9949 0.0044
vn -0.2634 0.9647 0.0039
vn 0.1956 0.9807 0.0041
vn 0.3621 0.9321 0.0038
vn -0.1794 0.9838 0.0041
vn -0.1003 0.9950 0.0044
s 1
f 3//2 4//2 33//13 20//13
f 33//13 17//7 12//7 20//13
f 28//18 12//7 17//7 25//18
f 25//18 9//5 8//5 28//18
f 24//17 8//5 9//5 29//17
f 29//17 13//8 16//8 24//17
f 32//14 16//8 13//8 21//14
f 21//14 5//3 6//3 32//14
f 22//15 6//3 5//3 31//20
f 31//20 15//10 14//9 22//15
f 30//16 14//9 15//10 23//16
f 23//16 7//4 10//4 30//16
f 26//19 10//4 7//4 27//19
f 27//19 11//6 18//11 26//19
f 34//12 18//11 11//6 19//12
f 19//12 2//1 1//1 34//12
