# Blender 4.3.2
# www.blender.org
o Book
v 2.000000 0.051434 -1.000000
v 2.000000 0.000000 -1.000000
v 2.000000 0.051434 1.000000
v 2.000000 0.000000 1.000000
v -2.000000 0.051434 -1.000000
v -2.000000 0.000000 -1.000000
v -2.000000 0.051434 1.000000
v -2.000000 0.000000 1.000000
v 1.913393 0.051434 0.926241
v -1.913393 0.051434 0.926241
v 1.913393 0.051434 -0.926241
v -1.913393 0.051434 -0.926241
v 1.816350 0.199607 0.926241
v -1.816350 0.199607 0.926241
v 1.816350 0.199607 -0.926241
v -1.816350 0.199607 -0.926241
v 0.000000 0.306080 0.926241
v 0.000000 0.306080 -0.926241
v -0.575279 0.401602 0.926241
v 0.575279 0.401602 -0.926241
v 0.575279 0.401602 0.926241
v -0.575279 0.401602 -0.926241
v -1.243647 0.275449 0.926241
v 1.243647 0.275449 -0.926241
v 0.163163 0.358666 0.926241
v -0.163163 0.358666 -0.926241
v -0.163163 0.358666 0.926241
v 0.163163 0.358666 -0.926241
v 1.243647 0.275449 0.926241
v -1.243647 0.275449 -0.926241
v -1.604123 0.210733 0.926241
v 1.604123 0.210733 -0.926241
v 0.061217 0.327831 0.926241
v -0.061217 0.327831 -0.926241
v -0.331467 0.392669 0.926241
v 0.331467 0.392669 -0.926241
v 0.887273 0.359245 0.926241
v -0.887273 0.359245 -0.926241
v -0.887273 0.359245 0.926241
v 0.887273 0.359245 -0.926241
v 0.331467 0.392669 0.926241
v -0.331467 0.392669 -0.926241
v -0.061217 0.327831 0.926241
v 0.061217 0.327831 -0.926241
v 1.604123 0.210733 0.926241
v -1.604123 0.210733 -0.926241
v -1.768807 0.199842 0.926241
v 1.768807 0.199842 -0.926241
v 0.027762 0.316227 0.926241
v -0.027762 0.316227 -0.926241
v -0.444006 0.402368 0.926241
v 0.444006 0.402368 -0.926241
v 0.723855 0.387539 0.926241
v -0.723855 0.387539 -0.926241
v -1.062043 0.318773 0.926241
v 1.062043 0.318773 -0.926241
v 0.238063 0.376575 0.926241
v -0.238063 0.376575 -0.926241
v -0.105111 0.341971 0.926241
v 0.105111 0.341971 -0.926241
v 1.426533 0.237285 0.926241
v -1.426533 0.237285 -0.926241
v -1.426533 0.237285 0.926241
v 1.426533 0.237285 -0.926241
v 0.105111 0.341971 0.926241
v -0.105111 0.341971 -0.926241
v -0.238063 0.376575 0.926241
v 0.238063 0.376575 -0.926241
v 1.062043 0.318773 0.926241
v -1.062043 0.318773 -0.926241
v -0.723855 0.387539 0.926241
v 0.723855 0.387539 -0.926241
v 0.444006 0.402368 0.926241
v -0.444006 0.402368 -0.926241
v -0.027762 0.316227 0.926241
v 0.027762 0.316227 -0.926241
v 1.768807 0.199842 0.926241
v -1.768807 0.199842 -0.926241
v 0.000000 0.306080 0.926241
v 0.000000 0.306080 -0.926241
vn -0.0000 1.0000 -0.0000
vn -0.0000 -0.0000 1.0000
vn -1.0000 -0.0000 -0.0000
vn 1.0000 -0.0000 -0.0000
vn -0.0000 -0.0000 -1.0000
vn 0.8366 0.5479 -0.0000
vn -0.8366 0.5479 -0.0000
vt 0.098846 0.976740
vt 0.880845 0.969193
vt 0.898151 0.976740
vt 0.904303 0.031249
vt 0.104998 0.020971
vt 0.904303 0.020971
vt 0.504650 0.010693
vt 0.104998 0.000415
vt 0.504650 0.000415
vt 0.904303 0.010693
vt 0.904303 0.000415
vt 0.904303 0.020971
vt 0.104998 0.010693
vt 0.682898 0.417756
vt 0.724189 0.389766
vt 0.500000 0.337172
vt 0.880845 0.779632
vt 0.898151 0.772085
vt 0.098846 0.772085
vt 0.116152 0.969193
vt 0.116152 0.779632
vt 0.339212 0.345146
vt 0.072090 0.250417
vt 0.074188 0.192227
vt 0.341310 0.286956
vt 0.076287 0.134039
vt 0.317102 0.417756
vt 0.275811 0.389766
vt 0.500000 0.337172
vt 0.904303 1.000415
vt 0.104998 0.031249
vt 0.104998 0.020971
vt 0.958941 0.231842
vt 0.983461 0.085261
vt 0.946929 0.232075
vt 0.016539 0.085261
vt 0.905317 0.242848
vt 0.041059 0.231842
vt 0.053072 0.232075
vt 0.094683 0.242848
vt 0.860445 0.269116
vt 0.814235 0.306869
vt 0.139555 0.269116
vt 0.185765 0.306869
vt 0.231651 0.349729
vt 0.275811 0.389766
vt 0.768349 0.349729
vt 0.354643 0.431668
vt 0.484532 0.358689
vt 0.473442 0.372678
vt 0.458773 0.389193
vt 0.387812 0.432426
vt 0.416248 0.422831
vt 0.439848 0.406909
vt 0.492985 0.347210
vt 0.507015 0.347210
vt 0.515468 0.358689
vt 0.526559 0.372678
vt 0.645357 0.431668
vt 0.541227 0.389193
vt 0.560152 0.406909
vt 0.612188 0.432426
vt 0.583753 0.422831
vt 0.337113 0.403334
vt 0.041059 0.231843
vt 0.016539 0.085261
vt 0.053072 0.232075
vt 0.983461 0.085261
vt 0.094683 0.242849
vt 0.958941 0.231843
vt 0.946929 0.232075
vt 0.905317 0.242849
vt 0.185765 0.306870
vt 0.814235 0.306870
vt 0.768349 0.349729
vt 0.724189 0.389766
vt 0.231651 0.349729
vt 0.645357 0.431668
vt 0.515468 0.358689
vt 0.526559 0.372678
vt 0.541227 0.389193
vt 0.612188 0.432426
vt 0.583753 0.422831
vt 0.560152 0.406910
vt 0.507015 0.347210
vt 0.492985 0.347210
vt 0.484532 0.358689
vt 0.473442 0.372678
vt 0.354643 0.431668
vt 0.458773 0.389193
vt 0.439848 0.406910
vt 0.387812 0.432426
vt 0.416248 0.422831
s 0
f 3/1/1 10/2/1 7/3/1
f 3/4/2 8/5/2 4/6/2
f 7/7/3 6/8/3 8/9/3
f 1/10/4 4/9/4 2/11/4
f 5/12/5 2/13/5 6/10/5
f 72/14/5 40/15/5 18/16/5
f 7/3/1 12/17/1 5/18/1
f 1/19/1 9/20/1 3/1/1
f 5/18/1 11/21/1 1/19/1
f 11/22/6 13/23/6 9/24/6
f 10/25/7 16/24/7 12/26/7
f 71/27/2 39/28/2 17/29/2
f 17/30/1 80/30/1 79/30/1
f 3/1/1 9/20/1 10/2/1
f 3/4/2 7/31/2 8/5/2
f 7/7/3 5/13/3 6/8/3
f 1/10/4 3/7/4 4/9/4
f 5/12/5 1/32/5 2/13/5
f 15/33/5 11/34/5 48/35/5
f 11/34/5 12/36/5 18/16/5
f 48/35/5 11/34/5 32/37/5
f 12/36/5 16/38/5 78/39/5
f 12/36/5 78/39/5 46/40/5
f 32/37/5 11/34/5 64/41/5
f 64/41/5 11/34/5 24/42/5
f 12/36/5 46/40/5 62/43/5
f 30/44/5 70/45/5 18/16/5
f 70/45/5 38/46/5 18/16/5
f 18/16/5 38/46/5 54/27/5
f 12/36/5 62/43/5 30/44/5
f 24/42/5 11/34/5 18/16/5
f 40/15/5 56/47/5 18/16/5
f 56/47/5 24/42/5 18/16/5
f 12/36/5 30/44/5 18/16/5
f 54/27/5 22/48/5 34/49/5
f 66/50/5 22/48/5 26/51/5
f 22/48/5 74/52/5 26/51/5
f 74/52/5 42/53/5 58/54/5
f 26/51/5 74/52/5 58/54/5
f 66/50/5 34/49/5 22/48/5
f 34/49/5 50/55/5 54/27/5
f 50/55/5 18/16/5 54/27/5
f 18/16/5 76/56/5 72/14/5
f 76/56/5 44/57/5 72/14/5
f 44/57/5 60/58/5 20/59/5
f 60/58/5 28/60/5 20/59/5
f 28/60/5 68/61/5 52/62/5
f 68/61/5 36/63/5 52/62/5
f 52/62/5 20/59/5 28/60/5
f 20/59/5 72/14/5 44/57/5
f 7/3/1 10/2/1 12/17/1
f 1/19/1 11/21/1 9/20/1
f 5/18/1 12/17/1 11/21/1
f 11/22/6 15/64/6 13/23/6
f 10/25/7 14/22/7 16/24/7
f 14/65/2 10/66/2 47/67/2
f 10/66/2 9/68/2 17/29/2
f 47/67/2 10/66/2 31/69/2
f 9/68/2 13/70/2 77/71/2
f 9/68/2 77/71/2 45/72/2
f 31/69/2 10/66/2 63/43/2
f 63/43/2 10/66/2 23/73/2
f 9/68/2 45/72/2 61/41/2
f 29/74/2 69/75/2 17/29/2
f 69/75/2 37/76/2 17/29/2
f 17/29/2 37/76/2 53/14/2
f 9/68/2 61/41/2 29/74/2
f 23/73/2 10/66/2 17/29/2
f 39/28/2 55/77/2 17/29/2
f 55/77/2 23/73/2 17/29/2
f 9/68/2 29/74/2 17/29/2
f 53/14/2 21/78/2 33/79/2
f 65/80/2 21/78/2 25/81/2
f 21/78/2 73/82/2 25/81/2
f 73/82/2 41/83/2 57/84/2
f 25/81/2 73/82/2 57/84/2
f 65/80/2 33/79/2 21/78/2
f 33/79/2 49/85/2 53/14/2
f 49/85/2 17/29/2 53/14/2
f 17/29/2 75/86/2 71/27/2
f 75/86/2 43/87/2 71/27/2
f 43/87/2 59/88/2 19/89/2
f 59/88/2 27/90/2 19/89/2
f 27/90/2 67/91/2 51/92/2
f 67/91/2 35/93/2 51/92/2
f 51/92/2 19/89/2 27/90/2
f 19/89/2 71/27/2 43/87/2
f 17/30/1 18/30/1 80/30/1
