# Blender 4.0.2
# www.blender.org
o Tree
v 0.000000 2.535738 -0.516611
v 0.258306 2.535738 -0.447398
v 0.447398 2.535738 -0.258306
v 0.516611 2.535738 0.000000
v 0.447398 2.535738 0.258306
v 0.258306 2.535738 0.447398
v 0.000000 2.535738 0.516611
v -0.258306 2.535738 0.447398
v -0.447398 2.535738 0.258306
v -0.516611 2.535738 0.000000
v -0.447398 2.535738 -0.258306
v -0.258306 2.535738 -0.447398
v 0.000000 3.568961 0.000000
v 0.000000 1.000000 -1.000000
v 0.382683 1.000000 -0.923880
v 0.707107 1.000000 -0.707107
v 0.923880 1.000000 -0.382683
v 1.000000 1.000000 0.000000
v 0.923880 1.000000 0.382683
v 0.707107 1.000000 0.707107
v 0.382683 1.000000 0.923880
v 0.000000 1.000000 1.000000
v -0.382683 1.000000 0.923880
v -0.707107 1.000000 0.707107
v -0.923880 1.000000 0.382683
v -1.000000 1.000000 0.000000
v -0.923880 1.000000 -0.382683
v -0.707107 1.000000 -0.707107
v -0.382683 1.000000 -0.923880
v 0.000000 3.000000 0.000000
v 0.000000 1.880187 -0.728778
v 0.364389 1.880187 -0.631140
v 0.631140 1.880187 -0.364389
v 0.728778 1.880187 0.000000
v 0.631140 1.880187 0.364389
v 0.364389 1.880187 0.631140
v 0.000000 1.880187 0.728778
v -0.364389 1.880187 0.631140
v -0.631140 1.880187 0.364389
v -0.728778 1.880187 0.000000
v -0.631140 1.880187 -0.364389
v -0.364389 1.880187 -0.631140
v 0.000000 3.337742 0.000000
v 0.000000 0.000000 -0.340778
v 0.000000 1.103755 -0.232533
v 0.200304 0.000000 -0.275695
v 0.136679 1.103755 -0.188123
v 0.324099 0.000000 -0.105306
v 0.221152 1.103755 -0.071857
v 0.324099 0.000000 0.105306
v 0.221152 1.103755 0.071857
v 0.200304 0.000000 0.275695
v 0.136679 1.103755 0.188123
v 0.000000 0.000000 0.340778
v 0.000000 1.103755 0.232533
v -0.200304 0.000000 0.275695
v -0.136679 1.103755 0.188123
v -0.324099 0.000000 0.105306
v -0.221152 1.103755 0.071857
v -0.324099 0.000000 -0.105306
v -0.221152 1.103755 -0.071857
v -0.200304 0.000000 -0.275695
v -0.136679 1.103755 -0.188123
vn -0.0000 -0.4714 -0.8819
vn -0.0000 1.0000 -0.0000
vn 0.4410 -0.4714 -0.7638
vn 0.7638 -0.4714 -0.4410
vn 0.8819 -0.4714 -0.0000
vn 0.7638 -0.4714 0.4410
vn 0.4410 -0.4714 0.7638
vn -0.0000 -0.4714 0.8819
vn -0.4410 -0.4714 0.7638
vn -0.7638 -0.4714 0.4410
vn -0.8819 -0.4714 -0.0000
vn -0.7638 -0.4714 -0.4410
vn -0.0000 -1.0000 -0.0000
vn -0.4410 -0.4714 -0.7638
vn -0.0000 -0.4834 -0.8754
vn 0.3350 -0.4834 -0.8088
vn 0.6190 -0.4834 -0.6190
vn 0.8088 -0.4834 -0.3350
vn 0.8754 -0.4834 -0.0000
vn 0.8088 -0.4834 0.3350
vn 0.6190 -0.4834 0.6190
vn 0.3350 -0.4834 0.8088
vn -0.0000 -0.4834 0.8754
vn -0.3350 -0.4834 0.8088
vn -0.6190 -0.4834 0.6190
vn -0.8088 -0.4834 0.3350
vn -0.8754 -0.4834 -0.0000
vn -0.8088 -0.4834 -0.3350
vn -0.6190 -0.4834 -0.6190
vn -0.3350 -0.4834 -0.8088
vn -0.0000 0.0976 -0.9952
vn 0.5850 0.0976 -0.8052
vn 0.9465 0.0976 -0.3075
vn 0.9465 0.0976 0.3075
vn 0.5850 0.0976 0.8052
vn -0.0000 0.0976 0.9952
vn -0.5850 0.0976 0.8052
vn -0.9465 0.0976 0.3075
vn -0.9465 0.0976 -0.3075
vn -0.5850 0.0976 -0.8052
vt 0.250000 0.490000
vt 0.250000 0.250000
vt 0.370000 0.457846
vt 0.457846 0.370000
vt 0.490000 0.250000
vt 0.457846 0.130000
vt 0.370000 0.042154
vt 0.250000 0.010000
vt 0.130000 0.042154
vt 0.042154 0.130000
vt 0.010000 0.250000
vt 0.042154 0.370000
vt 0.990000 0.250000
vt 0.630000 0.042154
vt 0.630000 0.457846
vt 0.130000 0.457846
vt 0.341844 0.471731
vt 0.419706 0.419706
vt 0.471731 0.341844
vt 0.471731 0.158156
vt 0.419706 0.080294
vt 0.341844 0.028269
vt 0.158156 0.028269
vt 0.080294 0.080294
vt 0.028269 0.158156
vt 0.028269 0.341844
vt 0.080294 0.419706
vt 0.841844 0.028269
vt 0.528269 0.158156
vt 0.658156 0.471731
vt 0.158156 0.471731
vt 1.000000 1.000000
vt 0.900000 0.000000
vt 1.000000 0.000000
vt 0.900000 1.000000
vt 0.800000 0.000000
vt 0.800000 1.000000
vt 0.700000 0.000000
vt 0.700000 1.000000
vt 0.600000 0.000000
vt 0.600000 1.000000
vt 0.500000 0.000000
vt 0.500000 1.000000
vt 0.400000 0.000000
vt 0.400000 1.000000
vt 0.300000 0.000000
vt 0.300000 1.000000
vt 0.200000 0.000000
vt 0.200000 1.000000
vt 0.100000 0.000000
vt 0.100000 1.000000
vt -0.000000 0.000000
vt 0.750000 0.490000
vt 0.870000 0.457846
vt 0.957846 0.370000
vt 0.957846 0.130000
vt 0.870000 0.042154
vt 0.750000 0.010000
vt 0.542154 0.130000
vt 0.510000 0.250000
vt 0.542154 0.370000
vt 0.841844 0.471731
vt 0.919706 0.419706
vt 0.971731 0.341844
vt 0.971731 0.158156
vt 0.919706 0.080294
vt 0.658156 0.028269
vt 0.580294 0.080294
vt 0.528269 0.341844
vt 0.580294 0.419706
vt -0.000000 1.000000
s 1
f 1/1/1 13/2/2 2/3/3
f 2/3/3 13/2/2 3/4/4
f 3/4/4 13/2/2 4/5/5
f 4/5/5 13/2/2 5/6/6
f 5/6/6 13/2/2 6/7/7
f 6/7/7 13/2/2 7/8/8
f 7/8/8 13/2/2 8/9/9
f 8/9/9 13/2/2 9/10/10
f 9/10/10 13/2/2 10/11/11
f 10/11/11 13/2/2 11/12/12
s 0
f 4/13/13 8/14/13 12/15/13
s 1
f 11/12/12 13/2/2 12/16/14
f 12/16/14 13/2/2 1/1/1
f 14/1/15 30/2/2 15/17/16
f 15/17/16 30/2/2 16/18/17
f 16/18/17 30/2/2 17/19/18
f 17/19/18 30/2/2 18/5/19
f 18/5/19 30/2/2 19/20/20
f 19/20/20 30/2/2 20/21/21
f 20/21/21 30/2/2 21/22/22
f 21/22/22 30/2/2 22/8/23
f 22/8/23 30/2/2 23/23/24
f 23/23/24 30/2/2 24/24/25
f 24/24/25 30/2/2 25/25/26
f 25/25/26 30/2/2 26/11/27
f 26/11/27 30/2/2 27/26/28
f 27/26/28 30/2/2 28/27/29
s 0
f 21/28/13 25/29/13 29/30/13
s 1
f 28/27/29 30/2/2 29/31/30
f 29/31/30 30/2/2 14/1/15
f 31/1/1 43/2/2 32/3/3
f 32/3/3 43/2/2 33/4/4
f 33/4/4 43/2/2 34/5/5
f 34/5/5 43/2/2 35/6/6
f 35/6/6 43/2/2 36/7/7
f 36/7/7 43/2/2 37/8/8
f 37/8/8 43/2/2 38/9/9
f 38/9/9 43/2/2 39/10/10
f 39/10/10 43/2/2 40/11/11
f 40/11/11 43/2/2 41/12/12
s 0
f 34/13/13 38/14/13 42/15/13
s 1
f 41/12/12 43/2/2 42/16/14
f 42/16/14 43/2/2 31/1/1
f 45/32/31 46/33/32 44/34/31
f 47/35/32 48/36/33 46/33/32
f 49/37/33 50/38/34 48/36/33
f 51/39/34 52/40/35 50/38/34
f 53/41/35 54/42/36 52/40/35
f 55/43/36 56/44/37 54/42/36
f 57/45/37 58/46/38 56/44/37
f 59/47/38 60/48/39 58/46/38
f 61/49/39 62/50/40 60/48/39
f 63/51/40 44/52/31 62/50/40
s 0
f 12/15/13 1/53/13 2/54/13
f 2/54/13 3/55/13 4/13/13
f 4/13/13 5/56/13 6/57/13
f 6/57/13 7/58/13 8/14/13
f 8/14/13 9/59/13 10/60/13
f 10/60/13 11/61/13 12/15/13
f 12/15/13 2/54/13 4/13/13
f 4/13/13 6/57/13 8/14/13
f 8/14/13 10/60/13 12/15/13
f 29/30/13 14/53/13 15/62/13
f 15/62/13 16/63/13 17/64/13
f 17/64/13 18/13/13 19/65/13
f 19/65/13 20/66/13 21/28/13
f 21/28/13 22/58/13 23/67/13
f 23/67/13 24/68/13 25/29/13
f 25/29/13 26/60/13 27/69/13
f 27/69/13 28/70/13 29/30/13
f 29/30/13 15/62/13 17/64/13
f 17/64/13 19/65/13 21/28/13
f 21/28/13 23/67/13 25/29/13
f 25/29/13 27/69/13 29/30/13
f 29/30/13 17/64/13 21/28/13
f 42/15/13 31/53/13 32/54/13
f 32/54/13 33/55/13 34/13/13
f 34/13/13 35/56/13 36/57/13
f 36/57/13 37/58/13 38/14/13
f 38/14/13 39/59/13 40/60/13
f 40/60/13 41/61/13 42/15/13
f 42/15/13 32/54/13 34/13/13
f 34/13/13 36/57/13 38/14/13
f 38/14/13 40/60/13 42/15/13
s 1
f 45/32/31 47/35/32 46/33/32
f 47/35/32 49/37/33 48/36/33
f 49/37/33 51/39/34 50/38/34
f 51/39/34 53/41/35 52/40/35
f 53/41/35 55/43/36 54/42/36
f 55/43/36 57/45/37 56/44/37
f 57/45/37 59/47/38 58/46/38
f 59/47/38 61/49/39 60/48/39
f 61/49/39 63/51/40 62/50/40
f 63/51/40 45/71/31 44/52/31
