# Blender v2.77 (sub 0) OBJ File: 'PenroseStairs.blend'
# www.blender.org
o PenroseStairs.Top_Cube.003
v -3.000000 0.800000 3.000000
v -3.000000 0.600000 2.000000
v -3.000000 0.800000 2.000000
v -2.000000 0.800000 3.000000
v -2.000000 0.600000 2.000000
v -2.000000 0.800000 2.000000
v -2.000000 1.000000 2.000000
v -2.000000 1.000000 3.000000
v -1.000000 1.000000 2.000000
v -1.000000 1.000000 3.000000
v -1.000000 1.200000 2.000000
v -1.000000 1.200000 3.000000
v -0.000000 1.200000 2.000000
v -0.000000 1.200000 3.000000
v -0.000000 1.400000 2.000000
v -0.000000 1.400000 3.000000
v 1.000000 1.400000 2.000000
v 1.000000 1.400000 3.000000
v 1.000000 1.600000 2.000000
v 1.000000 1.600000 3.000000
v 2.000000 1.600000 2.000000
v 2.000000 1.600000 3.000000
v 2.000000 1.800000 2.000000
v 2.000000 1.800000 3.000000
v 3.000000 1.800000 2.000000
v 3.000000 1.800000 3.000000
v -2.000000 0.600000 1.000000
v -3.000000 0.600000 1.000000
v -2.000000 0.400000 1.000000
v -3.000000 0.400000 1.000000
v -2.000000 0.400000 -0.000000
v -3.000000 0.400000 -0.000000
v 2.000000 2.000000 2.000000
v 3.000000 2.000000 2.000000
v 3.000000 2.000000 1.000000
v 2.000000 2.000000 1.000000
v 3.000000 2.200000 0.000000
v 3.000000 2.200000 1.000000
v 2.000000 2.200000 1.000000
v 2.000000 2.200000 0.000000
v 2.000000 2.400000 0.000000
v 3.000000 2.400000 0.000000
v 2.000000 2.400000 -1.000000
v 3.000000 2.400000 -1.000000
v 2.000000 2.600000 -1.000000
v 3.000000 2.600000 -1.000000
v 2.000000 2.600000 -2.000000
v 3.000000 2.600000 -2.000000
v 2.000000 2.800000 -3.000000
v 2.000000 2.800000 -2.000000
v 3.000000 2.800000 -2.000000
v 3.000000 2.800000 -3.000000
v 1.000000 3.000000 -3.000000
v 2.000000 3.000000 -3.000000
v 2.000000 3.000000 -2.000000
v 1.000000 3.000000 -2.000000
v -3.000000 0.600000 3.000000
v -3.000000 0.400000 2.000000
v -2.000000 0.600000 3.000000
v -2.000000 0.400000 2.000000
v -1.000000 0.800000 2.000000
v -1.000000 0.800000 3.000000
v -0.000000 1.000000 2.000000
v -0.000000 1.000000 3.000000
v 1.000000 1.200000 2.000000
v 1.000000 1.200000 3.000000
v 2.000000 1.400000 2.000000
v 2.000000 1.400000 3.000000
v 3.000000 1.600000 2.000000
v 3.000000 1.600000 3.000000
v -2.000000 0.200000 1.000000
v -3.000000 0.200000 1.000000
v -2.000000 0.200000 -0.000000
v -3.000000 0.200000 -0.000000
v 3.000000 1.800000 1.000000
v 2.000000 1.800000 1.000000
v 3.000000 2.000000 0.000000
v 2.000000 2.000000 0.000000
v 2.000000 2.200000 -1.000000
v 3.000000 2.200000 -1.000000
v 2.000000 2.400000 -2.000000
v 3.000000 2.400000 -2.000000
v 2.000000 2.600000 -3.000000
v 3.000000 2.600000 -3.000000
v 1.000000 2.800000 -3.000000
v 1.000000 2.800000 -2.000000
vt 1.0000 1.8000
vt 0.0000 1.6000
vt 0.0000 1.8000
vt 1.0000 1.0000
vt 0.0000 0.0000
vt 1.0000 0.0000
vt 0.0000 1.8000
vt 1.0000 2.0000
vt 1.0000 1.0000
vt 2.0000 0.0000
vt 2.0000 1.0000
vt 0.0000 0.0000
vt 1.0000 1.0000
vt 0.0000 1.0000
vt 0.0000 0.0000
vt 1.0000 0.2000
vt 1.0000 0.0000
vt 1.0000 0.0000
vt 2.0000 1.0000
vt 1.0000 1.0000
vt 0.0000 0.2000
vt 1.0000 0.4000
vt 1.0000 0.2000
vt 0.0000 1.0000
vt 1.0000 0.0000
vt 1.0000 1.0000
vt 0.0000 0.6000
vt 1.0000 0.8000
vt 1.0000 0.6000
vt 0.0000 0.4000
vt 1.0000 0.6000
vt 1.0000 0.4000
vt 1.0000 0.0000
vt 2.0000 1.0000
vt 1.0000 1.0000
vt 1.0000 1.8000
vt 0.0000 1.6000
vt 0.0000 1.8000
vt 1.0000 1.6000
vt 0.0000 1.4000
vt 0.0000 1.6000
vt 1.0000 1.8000
vt 1.0000 0.0000
vt 0.0000 1.0000
vt 0.0000 0.0000
vt 0.0000 1.0000
vt 1.0000 2.0000
vt 0.0000 2.0000
vt -1.0000 0.0000
vt 0.0000 -0.2000
vt 0.0000 1.0000
vt 1.0000 1.2000
vt 1.0000 1.0000
vt 0.0000 1.4000
vt 1.0000 1.6000
vt 1.0000 1.4000
vt 2.0000 0.8000
vt 1.0000 1.0000
vt 2.0000 2.0000
vt 1.0000 2.0000
vt 2.0000 1.0000
vt 1.0000 1.2000
vt 1.0000 1.0000
vt 2.0000 0.0000
vt 1.0000 1.0000
vt 1.0000 0.0000
vt 2.0000 1.0000
vt 1.0000 2.0000
vt 1.0000 1.0000
vt 2.0000 1.4000
vt 1.0000 1.6000
vt 1.0000 1.4000
vt 2.0000 1.2000
vt 1.0000 1.4000
vt 2.0000 1.6000
vt 1.0000 1.8000
vt 1.0000 0.0000
vt 2.0000 1.0000
vt 1.0000 1.0000
vt 2.0000 1.0000
vt 1.0000 2.0000
vt 1.0000 1.0000
vt 2.0000 1.8000
vt 1.0000 2.0000
vt 1.0000 1.0000
vt 0.0000 2.0000
vt 0.0000 1.0000
vt -1.0000 0.2000
vt 0.0000 0.4000
vt 0.0000 0.2000
vt 0.0000 0.0000
vt 1.0000 0.0000
vt 1.0000 0.4000
vt 0.0000 0.6000
vt 1.0000 1.4000
vt 2.0000 1.6000
vt 1.0000 1.6000
vt 1.0000 1.2000
vt 0.0000 1.4000
vt 0.0000 1.2000
vt 2.0000 1.8000
vt 0.0000 1.2000
vt 1.0000 1.4000
vt -1.0000 1.0000
vt 0.0000 0.8000
vt 0.0000 1.0000
vt -1.0000 1.2000
vt 0.0000 1.2000
vt 1.0000 1.6000
vt 0.0000 1.4000
vt 1.0000 1.4000
vt 0.0000 0.6000
vt 1.0000 0.8000
vt 0.0000 0.8000
vt -1.0000 1.4000
vt -1.0000 1.8000
vt 0.0000 1.6000
vt 0.0000 1.8000
vt 1.0000 2.0000
vt 2.0000 1.8000
vt 1.0000 1.8000
vt 0.0000 0.8000
vt -1.0000 1.0000
vt 1.0000 1.2000
vt 1.0000 1.4000
vt -1.0000 1.4000
vt 0.0000 1.2000
vt -1.0000 1.6000
vt 0.0000 1.2000
vt 1.0000 1.0000
vt 1.0000 1.2000
vt 1.0000 1.8000
vt 0.0000 1.8000
vt -1.0000 0.2000
vt 0.0000 0.2000
vt 0.0000 2.0000
vt 0.0000 1.8000
vt 1.0000 0.6000
vt 1.0000 0.4000
vt 0.0000 0.2000
vt 1.0000 0.0000
vt 1.0000 0.2000
vt -1.0000 0.8000
vt 0.0000 1.0000
vt 0.0000 2.0000
vt 1.0000 0.0000
vt 1.0000 0.0000
vt 2.0000 0.0000
vt 0.0000 0.4000
vt 0.0000 0.0000
vt 0.0000 0.8000
vt 0.0000 0.6000
vt 2.0000 0.0000
vt 1.0000 1.6000
vt 1.0000 1.4000
vt 1.0000 1.6000
vt 1.0000 1.0000
vt 1.0000 1.0000
vt -1.0000 -0.2000
vt 0.0000 1.2000
vt 0.0000 1.6000
vt 2.0000 1.0000
vt 2.0000 1.2000
vt 2.0000 1.0000
vt 2.0000 2.0000
vt 2.0000 1.6000
vt 2.0000 1.4000
vt 2.0000 1.8000
vt 2.0000 0.0000
vt 2.0000 2.0000
vt 2.0000 2.0000
vt 1.0000 2.0000
vt -1.0000 0.4000
vt 0.0000 0.2000
vt 2.0000 1.4000
vt 2.0000 2.0000
vt 0.0000 1.4000
vt -1.0000 0.8000
vt -1.0000 1.4000
vt 0.0000 1.6000
vt 1.0000 0.6000
vt -1.0000 1.6000
vt -1.0000 1.6000
vt 2.0000 2.0000
vt -1.0000 0.8000
vt 0.0000 1.2000
vt -1.0000 1.2000
vt -1.0000 1.8000
vt -1.0000 0.4000
vt -1.0000 0.6000
vn 0.0000 0.0000 -1.0000
vn 0.0000 1.0000 0.0000
vn -1.0000 0.0000 -0.0000
vn 0.0000 0.0000 1.0000
vn 1.0000 0.0000 0.0000
s off
f 6/1/1 2/2/1 3/3/1
f 6/4/2 1/5/2 4/6/2
f 4/7/3 7/8/3 6/1/3
f 7/9/2 10/10/2 9/11/2
f 12/12/2 13/13/2 11/14/2
f 10/15/3 11/16/3 9/17/3
f 16/18/2 17/19/2 15/20/2
f 14/21/3 15/22/3 13/23/3
f 19/24/2 22/25/2 21/26/2
f 22/27/3 23/28/3 21/29/3
f 18/30/3 19/31/3 17/32/3
f 24/33/2 25/34/2 23/35/2
f 3/36/3 57/37/3 1/38/3
f 27/39/1 30/40/1 28/41/1
f 57/37/4 4/42/4 1/38/4
f 29/43/2 32/44/2 30/45/2
f 2/46/2 27/47/2 28/48/2
f 8/49/4 62/50/4 10/15/4
f 36/51/3 40/52/3 78/53/3
f 43/54/3 47/55/3 81/56/3
f 25/57/4 33/58/4 23/28/4
f 33/58/2 35/59/2 36/60/2
f 35/61/4 39/62/4 36/63/4
f 38/64/2 40/65/2 39/66/2
f 42/67/2 43/68/2 41/69/2
f 44/70/4 45/71/4 43/72/4
f 37/73/4 41/74/4 40/52/4
f 48/75/4 50/76/4 47/55/4
f 45/77/2 48/78/2 47/79/2
f 51/80/2 49/81/2 50/82/2
f 49/83/5 55/84/5 50/76/5
f 55/85/2 53/86/2 56/87/2
f 13/88/1 17/89/1 65/90/1
f 9/91/1 13/23/1 63/92/1
f 67/93/1 19/94/1 21/29/1
f 60/95/5 27/96/5 5/97/5
f 73/98/5 29/99/5 71/100/5
f 7/8/1 61/101/1 6/1/1
f 74/102/1 31/103/1 73/98/1
f 34/104/5 75/105/5 35/106/5
f 40/107/3 43/54/3 79/108/3
f 48/109/5 44/110/5 82/111/5
f 70/112/5 25/113/5 26/114/5
f 58/115/3 28/41/3 30/40/3
f 51/116/5 84/117/5 52/118/5
f 56/119/3 85/120/3 86/121/3
f 76/122/3 33/123/3 36/51/3
f 74/124/3 30/40/3 32/125/3
f 42/126/5 80/127/5 44/110/5
f 83/128/1 52/118/1 84/117/1
f 38/129/5 77/130/5 37/131/5
f 53/86/1 49/132/1 85/133/1
f 18/30/4 14/134/4 66/135/4
f 50/76/4 56/136/4 86/137/4
f 22/138/4 18/30/4 68/139/4
f 12/140/4 64/141/4 14/142/4
f 24/143/4 70/112/4 26/114/4
f 6/1/1 5/97/1 2/2/1
f 6/4/2 3/144/2 1/5/2
f 4/7/3 8/145/3 7/8/3
f 7/9/2 8/146/2 10/10/2
f 12/12/2 14/147/2 13/13/2
f 10/15/3 12/140/3 11/16/3
f 16/18/2 18/148/2 17/19/2
f 14/21/3 16/149/3 15/22/3
f 19/24/2 20/150/2 22/25/2
f 22/27/3 24/151/3 23/28/3
f 18/30/3 20/152/3 19/31/3
f 24/33/2 26/153/2 25/34/2
f 3/36/3 2/154/3 57/37/3
f 27/39/1 29/155/1 30/40/1
f 57/37/4 59/156/4 4/42/4
f 29/43/2 31/157/2 32/44/2
f 2/46/2 5/158/2 27/47/2
f 8/49/4 4/159/4 62/50/4
f 36/51/3 39/160/3 40/52/3
f 43/54/3 45/161/3 47/55/3
f 25/57/4 34/162/4 33/58/4
f 33/58/2 34/162/2 35/59/2
f 35/61/4 38/163/4 39/62/4
f 38/64/2 37/164/2 40/65/2
f 42/67/2 44/165/2 43/68/2
f 44/70/4 46/166/4 45/71/4
f 37/73/4 42/167/4 41/74/4
f 48/75/4 51/168/4 50/76/4
f 45/77/2 46/169/2 48/78/2
f 51/80/2 52/170/2 49/81/2
f 49/83/5 54/171/5 55/84/5
f 55/85/2 54/172/2 53/86/2
f 13/88/1 15/173/1 17/89/1
f 9/91/1 11/174/1 13/23/1
f 67/93/1 17/89/1 19/94/1
f 60/95/5 29/175/5 27/96/5
f 73/98/5 31/103/5 29/99/5
f 7/8/1 9/176/1 61/101/1
f 74/102/1 32/177/1 31/103/1
f 34/104/5 25/178/5 75/105/5
f 40/107/3 41/179/3 43/54/3
f 48/109/5 46/180/5 44/110/5
f 70/112/5 69/181/5 25/113/5
f 58/115/3 2/182/3 28/41/3
f 51/116/5 48/183/5 84/117/5
f 56/119/3 53/184/3 85/120/3
f 76/122/3 23/185/3 33/123/3
f 74/124/3 72/186/3 30/40/3
f 42/126/5 37/187/5 80/127/5
f 83/128/1 49/188/1 52/118/1
f 38/129/5 35/106/5 77/130/5
f 53/86/1 54/172/1 49/132/1
f 18/30/4 16/189/4 14/134/4
f 50/76/4 55/84/4 56/136/4
f 22/138/4 20/152/4 18/30/4
f 12/140/4 10/15/4 64/141/4
f 24/143/4 22/190/4 70/112/4
