# Blender v2.77 (sub 0) OBJ File: 'Pyramid2.blend'
# www.blender.org
o Pyramid_Cube.002
v -0.206836 -0.388831 -1.125208
v -0.206836 -1.000000 -1.125208
v 0.206836 -0.388831 -1.125208
v 0.206836 -1.000000 -1.125208
v 0.145895 -0.501494 -1.125208
v 0.145895 -0.973505 -1.125208
v -0.145895 -0.973505 -1.047683
v -0.145895 -0.973505 -1.125208
v -0.145895 -0.501494 -1.125208
v 0.145895 -0.501494 -1.047683
v 0.145895 -0.973505 -1.047683
v -0.145895 -0.501494 -1.047683
v -1.000000 -0.707888 -1.000000
v -1.000000 -1.000000 -1.000000
v -1.000000 -1.000000 1.000000
v -0.206836 -0.707888 -1.000000
v -1.000000 -0.707888 1.000000
v 1.000000 -1.000000 1.000000
v -0.928715 -0.707888 -0.928715
v -0.206836 -1.000000 -1.000000
v -0.206836 -1.000000 -0.924974
v 0.206836 -1.000000 -0.924974
v 0.206836 -1.000000 -1.000000
v 1.000000 -1.000000 -1.000000
v -0.206836 -0.707888 -0.928715
v -0.928715 -0.707888 0.928715
v 1.000000 -0.707888 1.000000
v 1.000000 -0.707888 -1.000000
v 0.928715 -0.707888 -0.928715
v 0.206836 -0.707888 -0.928715
v 0.206836 -0.388831 -0.763514
v -0.206836 -0.388831 -0.763514
v -0.044252 1.000301 -0.044252
v 0.928715 -0.707888 0.928715
v -0.044252 1.000301 0.044252
v 0.206836 -0.707888 -1.000000
v 0.044252 1.000301 -0.044252
v 0.044252 1.000301 0.044252
vn 0.0000 0.0000 -1.0000
vn 0.0000 1.0000 0.0000
vn 0.0000 -1.0000 0.0000
vn -1.0000 0.0000 0.0000
vn 1.0000 0.0000 0.0000
vn 0.0000 0.4598 -0.8880
vn 0.0000 0.0000 1.0000
vn -0.8880 0.4598 0.0000
vn 0.8880 0.4598 0.0000
vn 0.0000 0.4598 0.8880
s off
f 3//1 5//1 1//1
f 8//2 7//2 6//2
f 6//1 5//1 4//1
f 1//1 9//1 2//1
f 2//1 8//1 4//1
f 11//1 7//1 10//1
f 5//3 10//3 9//3
f 6//4 11//4 5//4
f 9//5 12//5 8//5
f 5//1 9//1 1//1
f 7//2 11//2 6//2
f 5//1 3//1 4//1
f 9//1 8//1 2//1
f 8//1 6//1 4//1
f 7//1 12//1 10//1
f 10//3 12//3 9//3
f 11//4 10//4 5//4
f 12//5 7//5 8//5
f 34//2 26//2 27//2
f 18//3 22//3 24//3
f 13//4 14//4 17//4
f 15//3 14//3 21//3
f 29//2 34//2 28//2
f 18//3 15//3 22//3
f 31//6 37//6 29//6
f 17//7 15//7 27//7
f 37//2 33//2 38//2
f 30//2 29//2 36//2
f 19//8 26//8 33//8
f 13//2 19//2 16//2
f 19//2 13//2 26//2
f 34//9 29//9 38//9
f 23//1 36//1 24//1
f 32//6 25//6 19//6
f 37//6 31//6 33//6
f 32//6 19//6 33//6
f 29//6 30//6 31//6
f 14//1 13//1 20//1
f 26//10 34//10 35//10
f 27//5 18//5 28//5
f 3//5 36//5 4//5
f 36//5 3//5 30//5
f 3//2 1//2 31//2
f 20//4 16//4 2//4
f 32//4 1//4 25//4
f 20//3 23//3 21//3
f 4//3 23//3 2//3
f 26//2 17//2 27//2
f 22//3 23//3 24//3
f 14//4 15//4 17//4
f 14//3 20//3 21//3
f 34//2 27//2 28//2
f 15//3 21//3 22//3
f 15//7 18//7 27//7
f 33//2 35//2 38//2
f 29//2 28//2 36//2
f 26//8 35//8 33//8
f 19//2 25//2 16//2
f 13//2 17//2 26//2
f 29//9 37//9 38//9
f 36//1 28//1 24//1
f 31//6 32//6 33//6
f 13//1 16//1 20//1
f 34//10 38//10 35//10
f 18//5 24//5 28//5
f 36//5 23//5 4//5
f 3//5 31//5 30//5
f 1//2 32//2 31//2
f 16//4 1//4 2//4
f 1//4 16//4 25//4
f 23//3 22//3 21//3
f 23//3 20//3 2//3
