# Blender 3.4.1
# www.blender.org
o Cube
v 1.030000 1.030000 -1.030000
v 1.030000 -1.030000 -1.030000
v 1.030000 1.030000 1.030000
v 1.030000 -1.030000 1.030000
v -1.030000 1.030000 -1.030000
v -1.030000 -1.030000 -1.030000
v -1.030000 1.030000 1.030000
v -1.030000 -1.030000 1.030000
v -1.000000 -1.000000 1.050000
v -1.000000 1.000000 1.050000
v 1.000000 1.000000 1.050000
v 1.000000 -1.000000 1.050000
v 1.000000 1.050000 1.000000
v -1.000000 1.050000 1.000000
v 1.000000 1.050000 -1.000000
v -1.000000 1.050000 -1.000000
v 1.050000 1.000000 -1.000000
v 1.050000 -1.000000 -1.000000
v 1.050000 1.000000 1.000000
v 1.050000 -1.000000 1.000000
v -1.050000 -1.000000 -1.000000
v -1.050000 -1.000000 1.000000
v -1.050000 1.000000 1.000000
v -1.050000 1.000000 -1.000000
v 1.000000 -1.000000 -1.050000
v -1.000000 -1.000000 -1.050000
v 1.000000 1.000000 -1.050000
v -1.000000 1.000000 -1.050000
v -1.000000 -1.050000 -1.000000
v -1.000000 -1.050000 1.000000
v 1.000000 -1.050000 -1.000000
v 1.000000 -1.050000 1.000000
v -1.050000 -0.800000 -0.800000
v -1.050000 -0.800000 0.800000
v -1.050000 0.800000 0.800000
v -1.050000 0.800000 -0.800000
v -0.800000 -0.800000 1.050000
v -0.800000 0.800000 1.050000
v 0.800000 0.800000 1.050000
v 0.800000 -0.800000 1.050000
v 0.800000 1.050000 0.800000
v -0.800000 1.050000 0.800000
v 0.800000 1.050000 -0.800000
v -0.800000 1.050000 -0.800000
v 1.050000 0.800000 -0.800000
v 1.050000 -0.800000 -0.800000
v 1.050000 0.800000 0.800000
v 1.050000 -0.800000 0.800000
v 0.800000 -0.800000 -1.050000
v -0.800000 -0.800000 -1.050000
v 0.800000 0.800000 -1.050000
v -0.800000 0.800000 -1.050000
v -0.800000 -1.050000 -0.800000
v -0.800000 -1.050000 0.800000
v 0.800000 -1.050000 -0.800000
v 0.800000 -1.050000 0.800000
v -0.945000 -0.720000 -0.720000
v -0.945000 -0.720000 0.720000
v -0.945000 0.720000 0.720000
v -0.945000 0.720000 -0.720000
v -0.720000 -0.720000 0.945000
v -0.720000 0.720000 0.945000
v 0.720000 0.720000 0.945000
v 0.720000 -0.720000 0.945000
v 0.720000 0.945000 0.720000
v -0.720000 0.945000 0.720000
v 0.720000 0.945000 -0.720000
v -0.720000 0.945000 -0.720000
v 0.945000 0.720000 -0.720000
v 0.945000 -0.720000 -0.720000
v 0.945000 0.720000 0.720000
v 0.945000 -0.720000 0.720000
v 0.720000 -0.720000 -0.945000
v -0.720000 -0.720000 -0.945000
v 0.720000 0.720000 -0.945000
v -0.720000 0.720000 -0.945000
v -0.720000 -0.945000 -0.720000
v -0.720000 -0.945000 0.720000
v 0.720000 -0.945000 -0.720000
v 0.720000 -0.945000 0.720000
vn -0.5547 0.8321 -0.0000
vn -0.5547 -0.0000 0.8321
vn -0.8321 -0.5547 -0.0000
vn -0.5547 -0.8321 -0.0000
vn 0.8321 -0.5547 -0.0000
vn -0.5547 -0.0000 -0.8321
vn -0.0000 -0.0000 1.0000
vn -0.0000 -0.5547 0.8321
vn -0.0000 0.5547 0.8321
vn 0.5547 -0.0000 0.8321
vn -0.0000 1.0000 -0.0000
vn 0.5547 0.8321 -0.0000
vn -0.0000 0.8321 -0.5547
vn -0.0000 0.8321 0.5547
vn 1.0000 -0.0000 -0.0000
vn 0.8321 0.5547 -0.0000
vn 0.8321 -0.0000 0.5547
vn 0.8321 -0.0000 -0.5547
vn -1.0000 -0.0000 -0.0000
vn -0.8321 0.5547 -0.0000
vn -0.8321 -0.0000 -0.5547
vn -0.8321 -0.0000 0.5547
vn -0.0000 -0.0000 -1.0000
vn -0.0000 -0.5547 -0.8321
vn -0.0000 0.5547 -0.8321
vn 0.5547 -0.0000 -0.8321
vn -0.0000 -1.0000 -0.0000
vn 0.5547 -0.8321 -0.0000
vn -0.0000 -0.8321 -0.5547
vn -0.0000 -0.8321 0.5547
vn -0.7954 -0.0000 0.6060
vn -0.0000 0.6060 -0.7954
vn -0.6060 -0.0000 -0.7954
vn 0.7954 -0.0000 0.6060
vn -0.6060 0.7954 -0.0000
vn -0.7954 -0.6060 -0.0000
vn 0.6060 -0.0000 0.7954
vn -0.6060 -0.0000 0.7954
vn -0.7954 0.6060 -0.0000
vn -0.0000 0.7954 -0.6060
vn -0.0000 -0.7954 0.6060
vn 0.6060 -0.0000 -0.7954
vn 0.7954 -0.6060 -0.0000
vn -0.6060 -0.7954 -0.0000
vn 0.7954 0.6060 -0.0000
vn -0.7954 -0.0000 -0.6060
vn -0.0000 0.7954 0.6060
vn 0.6060 -0.7954 -0.0000
vn -0.0000 -0.6060 0.7954
vn -0.0000 0.6060 0.7954
vn 0.7954 -0.0000 -0.6060
vn 0.6060 0.7954 -0.0000
vn -0.0000 -0.6060 -0.7954
vn -0.0000 -0.7954 -0.6060
vt 1.000000 1.000000
vt 0.000000 1.000000
vt 0.000000 0.000000
vt 1.000000 0.000000
vt 1.000000 1.000000
vt 1.000000 0.000000
vt 0.000000 1.000000
vt 1.000000 0.000000
vt 0.000000 0.000000
vt 1.000000 1.000000
vt 1.000000 1.000000
vt 0.000000 1.000000
vt 0.000000 0.000000
vt 1.000000 0.000000
vt 0.000000 0.000000
vt 0.000000 1.000000
vt 1.000000 1.000000
vt 0.000000 0.000000
vt 1.000000 0.000000
vt 0.000000 1.000000
vt 0.014563 0.014563
vt 0.014563 0.985437
vt 0.985437 0.985437
vt 0.985437 0.014563
vt 0.985437 0.014563
vt 0.014563 0.014563
vt 0.985437 0.985437
vt 0.014563 0.985437
vt 0.985437 0.985437
vt 0.985437 0.014563
vt 0.014563 0.985437
vt 0.014563 0.014563
vt 0.014563 0.014563
vt 0.985437 0.014563
vt 0.985437 0.985437
vt 0.014563 0.985437
vt 0.014563 0.014563
vt 0.985437 0.014563
vt 0.014563 0.985437
vt 0.985437 0.985437
vt 0.014563 0.014563
vt 0.014563 0.985437
vt 0.985437 0.014563
vt 0.985437 0.985437
vt 0.111650 0.111650
vt 0.888349 0.111650
vt 0.888349 0.888349
vt 0.111650 0.888349
vt 0.111650 0.111650
vt 0.111650 0.888349
vt 0.888350 0.888349
vt 0.888350 0.111650
vt 0.888349 0.111650
vt 0.111650 0.111650
vt 0.888349 0.888349
vt 0.111650 0.888349
vt 0.888349 0.888349
vt 0.888349 0.111650
vt 0.111650 0.888349
vt 0.111650 0.111650
vt 0.111650 0.111650
vt 0.888349 0.111650
vt 0.111650 0.888349
vt 0.888349 0.888349
vt 0.111650 0.111650
vt 0.111650 0.888349
vt 0.888349 0.111650
vt 0.888349 0.888349
vt 0.150485 0.150485
vt 0.849515 0.150485
vt 0.849515 0.849515
vt 0.150485 0.849515
vt 0.150485 0.150485
vt 0.150485 0.849515
vt 0.849515 0.849515
vt 0.849515 0.150485
vt 0.849515 0.150485
vt 0.150485 0.150485
vt 0.849515 0.849515
vt 0.150485 0.849515
vt 0.849515 0.849515
vt 0.849515 0.150485
vt 0.150485 0.849515
vt 0.150485 0.150485
vt 0.150485 0.150485
vt 0.849514 0.150485
vt 0.150485 0.849515
vt 0.849514 0.849515
vt 0.150485 0.150485
vt 0.150485 0.849515
vt 0.849515 0.150485
vt 0.849515 0.849515
s 0
f 7/15/1 16/28/1 5/12/1
f 8/18/2 10/22/2 7/16/2
f 8/19/3 21/33/3 6/13/3
f 6/13/4 30/42/4 8/20/4
f 2/4/5 20/32/5 4/9/5
f 5/11/6 26/38/6 6/14/6
f 9/21/7 40/52/7 37/49/7
f 4/8/8 9/21/8 8/18/8
f 7/16/9 11/23/9 3/5/9
f 3/5/10 12/24/10 4/8/10
f 16/28/11 42/54/11 44/56/11
f 1/1/12 13/25/12 3/6/12
f 5/12/13 15/27/13 1/1/13
f 3/6/14 14/26/14 7/15/14
f 18/30/15 45/57/15 46/58/15
f 3/7/16 17/29/16 1/1/16
f 4/9/17 19/31/17 3/7/17
f 1/1/18 18/30/18 2/4/18
f 23/35/19 36/48/19 35/47/19
f 5/12/20 23/35/20 7/17/20
f 6/13/21 24/36/21 5/12/21
f 7/17/22 22/34/22 8/19/22
f 26/38/23 52/64/23 50/62/23
f 6/14/24 25/37/24 2/3/24
f 1/2/25 28/40/25 5/11/25
f 2/3/26 27/39/26 1/2/26
f 31/43/27 56/68/27 55/67/27
f 4/10/28 31/43/28 2/4/28
f 2/4/29 29/41/29 6/13/29
f 8/20/30 32/44/30 4/10/30
f 39/51/31 64/76/31 40/52/31
f 22/34/19 35/47/19 34/46/19
f 24/36/19 33/45/19 36/48/19
f 21/33/19 34/46/19 33/45/19
f 41/53/32 66/78/32 42/54/32
f 12/24/7 39/51/7 40/52/7
f 11/23/7 38/50/7 39/51/7
f 10/22/7 37/49/7 38/50/7
f 35/47/33 58/70/33 34/46/33
f 14/26/11 41/53/11 42/54/11
f 15/27/11 44/56/11 43/55/11
f 13/25/11 43/55/11 41/53/11
f 37/49/34 62/74/34 38/50/34
f 20/32/15 46/58/15 48/60/15
f 19/31/15 48/60/15 47/59/15
f 17/29/15 47/59/15 45/57/15
f 34/46/35 57/69/35 33/45/35
f 25/37/23 50/62/23 49/61/23
f 28/40/23 51/63/23 52/64/23
f 27/39/23 49/61/23 51/63/23
f 56/68/36 79/91/36 55/67/36
f 29/41/27 55/67/27 53/65/27
f 32/44/27 54/66/27 56/68/27
f 30/42/27 53/65/27 54/66/27
f 59/71/19 57/69/19 58/70/19
f 63/75/7 61/73/7 64/76/7
f 68/80/11 65/77/11 67/79/11
f 69/81/15 72/84/15 70/82/15
f 76/88/23 73/85/23 74/86/23
f 79/91/27 78/90/27 77/89/27
f 45/57/37 70/82/37 46/58/37
f 33/45/38 60/72/38 36/48/38
f 43/55/39 65/77/39 41/53/39
f 50/62/40 73/85/40 49/61/40
f 38/50/41 63/75/41 39/51/41
f 48/60/42 71/83/42 47/59/42
f 53/65/43 78/90/43 54/66/43
f 36/48/44 59/71/44 35/47/44
f 42/54/45 68/80/45 44/56/45
f 49/61/46 75/87/46 51/63/46
f 40/52/47 61/73/47 37/49/47
f 47/59/48 69/81/48 45/57/48
f 55/67/49 77/89/49 53/65/49
f 44/56/50 67/79/50 43/55/50
f 52/64/51 74/86/51 50/62/51
f 46/58/52 72/84/52 48/60/52
f 54/66/53 80/92/53 56/68/53
f 51/63/54 76/88/54 52/64/54
f 7/15/1 14/26/1 16/28/1
f 8/18/2 9/21/2 10/22/2
f 8/19/3 22/34/3 21/33/3
f 6/13/4 29/41/4 30/42/4
f 2/4/5 18/30/5 20/32/5
f 5/11/6 28/40/6 26/38/6
f 9/21/7 12/24/7 40/52/7
f 4/8/8 12/24/8 9/21/8
f 7/16/9 10/22/9 11/23/9
f 3/5/10 11/23/10 12/24/10
f 16/28/11 14/26/11 42/54/11
f 1/1/12 15/27/12 13/25/12
f 5/12/13 16/28/13 15/27/13
f 3/6/14 13/25/14 14/26/14
f 18/30/15 17/29/15 45/57/15
f 3/7/16 19/31/16 17/29/16
f 4/9/17 20/32/17 19/31/17
f 1/1/18 17/29/18 18/30/18
f 23/35/19 24/36/19 36/48/19
f 5/12/20 24/36/20 23/35/20
f 6/13/21 21/33/21 24/36/21
f 7/17/22 23/35/22 22/34/22
f 26/38/23 28/40/23 52/64/23
f 6/14/24 26/38/24 25/37/24
f 1/2/25 27/39/25 28/40/25
f 2/3/26 25/37/26 27/39/26
f 31/43/27 32/44/27 56/68/27
f 4/10/28 32/44/28 31/43/28
f 2/4/29 31/43/29 29/41/29
f 8/20/30 30/42/30 32/44/30
f 39/51/31 63/75/31 64/76/31
f 22/34/19 23/35/19 35/47/19
f 24/36/19 21/33/19 33/45/19
f 21/33/19 22/34/19 34/46/19
f 41/53/32 65/77/32 66/78/32
f 12/24/7 11/23/7 39/51/7
f 11/23/7 10/22/7 38/50/7
f 10/22/7 9/21/7 37/49/7
f 35/47/33 59/71/33 58/70/33
f 14/26/11 13/25/11 41/53/11
f 15/27/11 16/28/11 44/56/11
f 13/25/11 15/27/11 43/55/11
f 37/49/34 61/73/34 62/74/34
f 20/32/15 18/30/15 46/58/15
f 19/31/15 20/32/15 48/60/15
f 17/29/15 19/31/15 47/59/15
f 34/46/35 58/70/35 57/69/35
f 25/37/23 26/38/23 50/62/23
f 28/40/23 27/39/23 51/63/23
f 27/39/23 25/37/23 49/61/23
f 56/68/36 80/92/36 79/91/36
f 29/41/27 31/43/27 55/67/27
f 32/44/27 30/42/27 54/66/27
f 30/42/27 29/41/27 53/65/27
f 59/71/19 60/72/19 57/69/19
f 63/75/7 62/74/7 61/73/7
f 68/80/11 66/78/11 65/77/11
f 69/81/15 71/83/15 72/84/15
f 76/88/23 75/87/23 73/85/23
f 79/91/27 80/92/27 78/90/27
f 45/57/37 69/81/37 70/82/37
f 33/45/38 57/69/38 60/72/38
f 43/55/39 67/79/39 65/77/39
f 50/62/40 74/86/40 73/85/40
f 38/50/41 62/74/41 63/75/41
f 48/60/42 72/84/42 71/83/42
f 53/65/43 77/89/43 78/90/43
f 36/48/44 60/72/44 59/71/44
f 42/54/45 66/78/45 68/80/45
f 49/61/46 73/85/46 75/87/46
f 40/52/47 64/76/47 61/73/47
f 47/59/48 71/83/48 69/81/48
f 55/67/49 79/91/49 77/89/49
f 44/56/50 68/80/50 67/79/50
f 52/64/51 76/88/51 74/86/51
f 46/58/52 70/82/52 72/84/52
f 54/66/53 78/90/53 80/92/53
f 51/63/54 75/87/54 76/88/54
