# Blender v2.77 (sub 0) OBJ File: 'Portal.blend'
# www.blender.org
o Scene_Cylinder
v -1.219865 -2.000000 -0.100000
v -1.219865 -2.000000 0.100000
v -1.000000 2.000000 -0.100000
v -1.000000 2.000000 0.100000
v 1.219865 -2.000000 -0.100000
v 1.219865 -2.000000 0.100000
v 1.000000 2.000000 -0.100000
v 1.000000 2.000000 0.100000
v -0.800000 -1.866724 0.100000
v -0.800000 1.760000 0.100000
v 0.800000 1.760000 0.100000
v 0.800000 -1.866724 0.100000
v -0.800000 1.760000 -0.100000
v -0.800000 -1.866724 -0.100000
v 0.800000 1.760000 -0.100000
v 0.800000 -1.866724 -0.100000
v -0.800000 -1.866724 0.000000
v -0.800000 1.760000 0.000000
v 0.800000 -1.866724 0.000000
v 0.800000 1.760000 0.000000
v 0.000001 -2.000000 -0.000000
v 0.000001 -2.000000 -8.000000
v 5.656854 -2.000000 -5.656855
v 8.000001 -2.000000 0.000000
v 5.656854 -2.000000 5.656855
v -0.000000 -2.000000 8.000000
v -5.656856 -2.000000 5.656853
v -7.999999 -2.000000 -0.000000
v -5.656856 -2.000000 -5.656853
v -1.000000 -1.000000 0.100000
v -1.000000 -1.000000 -0.100000
v 1.000000 -1.000000 0.100000
v 1.000000 -1.000000 -0.100000
vn -1.0000 0.0000 0.0000
vn 0.0000 1.0000 0.0000
vn 0.9767 0.2147 0.0000
vn 0.0000 -1.0000 0.0000
vn 0.0000 0.0000 1.0000
vn 1.0000 0.0000 0.0000
vn 0.0000 0.0000 -1.0000
vn -0.9767 0.2147 0.0000
s off
f 4//1 31//1 30//1
f 8//2 3//2 4//2
f 6//3 33//3 32//3
f 2//4 5//4 6//4
f 19//1 15//1 16//1
f 11//5 32//5 8//5
f 18//6 9//6 17//6
f 30//5 10//5 4//5
f 6//5 9//5 2//5
f 8//5 10//5 11//5
f 16//2 17//2 19//2
f 13//6 17//6 14//6
f 3//7 15//7 13//7
f 1//7 16//7 5//7
f 12//1 20//1 19//1
f 13//4 20//4 18//4
f 18//4 11//4 10//4
f 33//7 16//7 15//7
f 19//2 9//2 12//2
f 21//2 23//2 22//2
f 21//2 24//2 23//2
f 21//2 25//2 24//2
f 21//2 26//2 25//2
f 21//2 27//2 26//2
f 21//2 28//2 27//2
f 21//2 29//2 28//2
f 21//2 22//2 29//2
f 1//7 31//7 14//7
f 9//5 30//5 2//5
f 10//5 30//5 9//5
f 30//8 1//8 2//8
f 16//7 33//7 5//7
f 6//5 32//5 12//5
f 7//7 33//7 15//7
f 11//5 12//5 32//5
f 32//6 7//6 8//6
f 14//7 31//7 13//7
f 13//7 31//7 3//7
f 4//1 3//1 31//1
f 8//2 7//2 3//2
f 6//3 5//3 33//3
f 2//4 1//4 5//4
f 19//1 20//1 15//1
f 18//6 10//6 9//6
f 6//5 12//5 9//5
f 8//5 4//5 10//5
f 16//2 14//2 17//2
f 13//6 18//6 17//6
f 3//7 7//7 15//7
f 1//7 14//7 16//7
f 12//1 11//1 20//1
f 13//4 15//4 20//4
f 18//4 20//4 11//4
f 19//2 17//2 9//2
f 30//8 31//8 1//8
f 32//6 33//6 7//6
