# Blender v2.77 (sub 0) OBJ File: 'Pyramid2.blend'
# www.blender.org
o Pyramid_Cube.002
v -0.206836 -0.388831 1.125208
v -0.206836 -1.000000 1.125208
v 0.206836 -0.388831 1.125208
v 0.206836 -1.000000 1.125208
v 0.145895 -0.501494 1.125208
v 0.145895 -0.973505 1.125208
v -0.145895 -0.973505 1.047683
v -0.145895 -0.973505 1.125208
v -0.145895 -0.501494 1.125208
v 0.145895 -0.501494 1.047683
v 0.145895 -0.973505 1.047683
v -0.145895 -0.501494 1.047683
v -1.000000 -0.707888 1.000000
v -1.000000 -1.000000 1.000000
v -1.000000 -1.000000 -1.000000
v -0.206836 -0.707888 1.000000
v -1.000000 -0.707888 -1.000000
v 1.000000 -1.000000 -1.000000
v -0.928715 -0.707888 0.928715
v -0.206836 -1.000000 1.000000
v -0.206836 -1.000000 0.924974
v 0.206836 -1.000000 0.924974
v 0.206836 -1.000000 1.000000
v 1.000000 -1.000000 1.000000
v -0.206836 -0.707888 0.928715
v -0.928715 -0.707888 -0.928715
v 1.000000 -0.707888 -1.000000
v 1.000000 -0.707888 1.000000
v 0.928715 -0.707888 0.928715
v 0.206836 -0.707888 0.928715
v 0.206836 -0.388831 0.763514
v -0.206836 -0.388831 0.763514
v -0.044252 1.000301 0.044252
v 0.928715 -0.707888 -0.928715
v -0.044252 1.000301 -0.044252
v 0.206836 -0.707888 1.000000
v 0.044252 1.000301 0.044252
v 0.044252 1.000301 -0.044252
vn 0.0000 0.0000 1.0000
vn 0.0000 1.0000 0.0000
vn 0.0000 -1.0000 0.0000
vn -1.0000 0.0000 0.0000
vn 1.0000 0.0000 0.0000
vn 0.0000 0.4598 0.8880
vn 0.0000 0.0000 -1.0000
vn -0.8880 0.4598 0.0000
vn 0.8880 0.4598 0.0000
vn 0.0000 0.4598 -0.8880
s off
f 1//1 5//1 3//1
f 6//2 7//2 8//2
f 4//1 5//1 6//1
f 2//1 9//1 1//1
f 4//1 8//1 2//1
f 10//1 7//1 11//1
f 9//3 10//3 5//3
f 5//4 11//4 6//4
f 8//5 12//5 9//5
f 1//1 9//1 5//1
f 6//2 11//2 7//2
f 4//1 3//1 5//1
f 2//1 8//1 9//1
f 4//1 6//1 8//1
f 10//1 12//1 7//1
f 9//3 12//3 10//3
f 5//4 10//4 11//4
f 8//5 7//5 12//5
f 27//2 26//2 34//2
f 24//3 22//3 18//3
f 17//4 14//4 13//4
f 21//3 14//3 15//3
f 28//2 34//2 29//2
f 22//3 15//3 18//3
f 29//6 37//6 31//6
f 27//7 15//7 17//7
f 38//2 33//2 37//2
f 36//2 29//2 30//2
f 33//8 26//8 19//8
f 16//2 19//2 13//2
f 26//2 13//2 19//2
f 38//9 29//9 34//9
f 24//1 36//1 23//1
f 19//6 25//6 32//6
f 33//6 31//6 37//6
f 33//6 19//6 32//6
f 31//6 30//6 29//6
f 20//1 13//1 14//1
f 35//10 34//10 26//10
f 28//5 18//5 27//5
f 4//5 36//5 3//5
f 30//5 3//5 36//5
f 31//2 1//2 3//2
f 2//4 16//4 20//4
f 25//4 1//4 32//4
f 21//3 23//3 20//3
f 2//3 23//3 4//3
f 27//2 17//2 26//2
f 24//3 23//3 22//3
f 17//4 15//4 14//4
f 21//3 20//3 14//3
f 28//2 27//2 34//2
f 22//3 21//3 15//3
f 27//7 18//7 15//7
f 38//2 35//2 33//2
f 36//2 28//2 29//2
f 33//8 35//8 26//8
f 16//2 25//2 19//2
f 26//2 17//2 13//2
f 38//9 37//9 29//9
f 24//1 28//1 36//1
f 33//6 32//6 31//6
f 20//1 16//1 13//1
f 35//10 38//10 34//10
f 28//5 24//5 18//5
f 4//5 23//5 36//5
f 30//5 31//5 3//5
f 31//2 32//2 1//2
f 2//4 1//4 16//4
f 25//4 16//4 1//4
f 21//3 22//3 23//3
f 2//3 20//3 23//3
