<?xml version="1.0" encoding="iso-8859-1"?>
<!-- Generator: Adobe Illustrator 18.1.1, SVG Export Plug-In . SVG Version: 6.00 Build 0)  -->
<svg version="1.1" id="Capa_1" xmlns="http://www.w3.org/2000/svg" xmlns:xlink="http://www.w3.org/1999/xlink" x="0px" y="0px"
	 viewBox="0 0 13.802 13.802" style="enable-background:new 0 0 13.802 13.802;" xml:space="preserve">
<g>
	<g>
		<path style="fill:#030104;" d="M10.668,7.333c-0.018-1.749,1.426-2.586,1.49-2.628c-0.811-1.185-2.073-1.348-2.524-1.366
			c-1.073-0.11-2.096,0.632-2.642,0.632c-0.544,0-1.386-0.617-2.277-0.601C3.543,3.388,2.464,4.052,1.86,5.1
			c-1.217,2.112-0.312,5.24,0.874,6.955c0.58,0.838,1.272,1.779,2.179,1.746c0.874-0.035,1.204-0.566,2.261-0.566
			s1.354,0.566,2.278,0.549c0.941-0.018,1.536-0.855,2.111-1.695c0.666-0.973,0.94-1.916,0.957-1.963
			C12.498,10.114,10.687,9.421,10.668,7.333z"/>
		<path style="fill:#030104;" d="M8.93,2.204C9.411,1.621,9.737,0.809,9.648,0C8.953,0.028,8.114,0.461,7.615,1.045
			C7.168,1.562,6.779,2.387,6.883,3.18C7.657,3.241,8.449,2.786,8.93,2.204z"/>
	</g>
</g>
<g>
</g>
<g>
</g>
<g>
</g>
<g>
</g>
<g>
</g>
<g>
</g>
<g>
</g>
<g>
</g>
<g>
</g>
<g>
</g>
<g>
</g>
<g>
</g>
<g>
</g>
<g>
</g>
<g>
</g>
</svg>
