<?xml version="1.0" encoding="iso-8859-1"?>
<!-- Generator: Adobe Illustrator 19.0.0, SVG Export Plug-In . SVG Version: 6.00 Build 0)  -->
<svg version="1.1" id="Capa_1" xmlns="http://www.w3.org/2000/svg" xmlns:xlink="http://www.w3.org/1999/xlink" x="0px" y="0px"
	 viewBox="0 0 55.501 55.501" style="enable-background:new 0 0 55.501 55.501;" xml:space="preserve">
<g>
	<g>
		<path d="M52.25,6.001H33.211c1.843-2.686,3.247-4.29,3.287-4.336c0.367-0.413,0.329-1.045-0.083-1.411
			c-0.413-0.368-1.045-0.331-1.412,0.083c-0.191,0.214-2.02,2.3-4.236,5.664H3.25c-0.552,0-1,0.447-1,1v41c0,0.553,0.448,1,1,1
			h28.205c0.577,1.941,1.357,3.942,2.407,5.961c0.178,0.343,0.527,0.539,0.888,0.539c0.155,0,0.313-0.036,0.46-0.112
			c0.49-0.255,0.681-0.859,0.426-1.349c-0.882-1.697-1.558-3.386-2.078-5.039H52.25c0.552,0,1-0.447,1-1v-41
			C53.25,6.448,52.803,6.001,52.25,6.001z M4.25,47.001v-39h25.253c-3.326,5.483-6.975,13.378-7.252,21.968
			c-0.009,0.271,0.093,0.533,0.281,0.728c0.188,0.195,0.447,0.305,0.718,0.305h7.698c-0.343,1.402-0.807,3.844-0.904,6.921
			c-0.917,0.051-1.849,0.079-2.794,0.079c-7.012,0-13.482-1.466-16.485-3.733c-0.441-0.334-1.067-0.246-1.4,0.195
			c-0.333,0.44-0.246,1.067,0.195,1.4c3.378,2.553,10.157,4.138,17.69,4.138c0.943,0,1.874-0.025,2.787-0.073
			c0.052,2.156,0.305,4.544,0.892,7.073H4.25z M51.25,47.001H33.001c-0.631-2.584-0.891-5.035-0.936-7.225
			c5.605-0.525,10.361-1.954,12.981-3.993c0.436-0.339,0.514-0.967,0.175-1.403c-0.339-0.436-0.968-0.516-1.403-0.175
			c-2.273,1.769-6.631,3.054-11.739,3.559c0.163-4.435,1.114-7.388,1.134-7.446c0.101-0.305,0.05-0.641-0.138-0.901
			c-0.188-0.26-0.489-0.415-0.811-0.415h-7.963c0.547-8.248,4.37-15.901,7.593-21H51.25V47.001z"/>
		<rect x="36.25" y="14.001" width="2" height="7.099"/>
		<rect x="15.25" y="14.001" width="2" height="7.099"/>
	</g>
</g>
<g>
</g>
<g>
</g>
<g>
</g>
<g>
</g>
<g>
</g>
<g>
</g>
<g>
</g>
<g>
</g>
<g>
</g>
<g>
</g>
<g>
</g>
<g>
</g>
<g>
</g>
<g>
</g>
<g>
</g>
</svg>
