<svg xmlns="http://www.w3.org/2000/svg" viewBox="0 0 107.62 107.62"><title>web-assembly-icon-black</title><g id="Layer_2" data-name="Layer 2"><g id="Notch_-_Black" data-name="Notch - Black"><g id="icon"><polygon points="79.87 67.39 76.76 81.38 86.44 81.38 82.87 67.39 79.87 67.39"/><path d="M66.13,0a5.62,5.62,0,0,1,0,.58A12.34,12.34,0,0,1,53.81,12.92,12.33,12.33,0,0,1,41.47.58a5.62,5.62,0,0,1,0-.58H0V107.62H107.62V0ZM51.38,96.1,46.13,70.17H46L40.39,96.1H33.17L25,58h7.13L37,83.94h.09L42.94,58h6.67l5.28,26.26H55L60.55,58h7L58.46,96.1Zm39.26,0-2.43-8.48H75.4L73.53,96.1H66.36L75.58,58H86.83L98,96.1Z"/></g></g></g></svg>