# Blender 4.3.2
# www.blender.org
o Book_Page_Animated
v 1.791379 0.213293 0.925910
v 1.789523 0.213673 -0.926572
v -0.000373 0.305917 0.926241
v 0.000373 0.306243 -0.926241
v 0.556388 0.444134 -0.926149
v 0.556544 0.443995 0.926334
v 1.207507 0.285330 -0.926177
v 0.147894 0.392633 0.926321
v 0.148375 0.392878 -0.926162
v 1.208276 0.284995 0.926306
v 1.533508 0.218835 -0.926356
v 0.055115 0.339705 0.926270
v 0.312755 0.441928 -0.926129
v 0.865075 0.383095 0.926353
v 0.865107 0.383196 -0.926129
v 0.312742 0.441774 0.926353
v 0.055862 0.340031 -0.926213
v 1.534787 0.218446 0.926126
v 1.674715 0.209474 -0.926456
v 0.024733 0.321517 0.926254
v 0.424996 0.453233 -0.926127
v 0.704267 0.423734 0.926313
v 1.034682 0.330719 -0.926095
v 0.219512 0.420427 0.926343
v 0.095946 0.362833 -0.926193
v 1.377060 0.247219 0.926196
v 1.376069 0.247613 -0.926286
v 0.095199 0.362507 0.926290
v 0.219993 0.420672 -0.926140
v 1.034939 0.330531 0.926388
v 0.704478 0.423778 -0.926170
v 0.424984 0.453078 0.926355
v 0.025480 0.321843 -0.926228
v 1.676138 0.209087 0.926026
vn 0.0365 -0.9993 -0.0002
vn 0.5278 -0.8494 0.0001
vn -0.1026 -0.9947 -0.0001
vn -0.2363 -0.9717 -0.0001
vn 0.4305 -0.9026 -0.0000
vn -0.1231 -0.9924 -0.0001
vn 0.5041 -0.8637 0.0001
vn 0.1621 -0.9868 -0.0001
vn -0.2704 -0.9627 -0.0001
vn -0.0148 -0.9999 -0.0002
vn 0.5207 -0.8537 0.0001
vn 0.0157 -0.9999 -0.0001
vn -0.1908 -0.9816 -0.0001
vn -0.2749 -0.9615 -0.0001
vn 0.2933 -0.9560 -0.0001
vn 0.4956 -0.8685 -0.0000
vn -0.1990 -0.9800 -0.0001
s 1
f 3//2 4//2 33//11 20//11
f 33//11 17//7 12//7 20//11
f 28//16 12//7 17//7 25//16
f 25//16 9//5 8//5 28//16
f 24//15 8//5 9//5 29//15
f 29//15 13//8 16//8 24//15
f 32//12 16//8 13//8 21//12
f 21//12 5//3 6//3 32//12
f 22//13 6//3 5//3 31//13
f 31//13 15//9 14//9 22//13
f 30//14 14//9 15//9 23//14
f 23//14 7//4 10//4 30//14
f 26//17 10//4 7//4 27//17
f 27//17 11//6 18//6 26//17
f 34//10 18//6 11//6 19//10
f 19//10 2//1 1//1 34//10
