# Blender 4.3.2
# www.blender.org
o Book_Page_Animated
v -1.624837 0.682133 0.932746
v -1.651606 0.709191 -0.919345
v -0.000438 0.302497 0.926234
v 0.000438 0.309663 -0.926234
v -0.553571 0.440754 -0.925453
v -0.551726 0.432506 0.927011
v -1.227115 0.345907 -0.926111
v -0.143941 0.398550 0.926523
v -0.143925 0.406139 -0.925943
v -1.222677 0.336611 0.926332
v -1.552892 0.474224 -0.923607
v -0.056834 0.334747 0.926332
v -0.310935 0.452095 -0.925703
v -0.865174 0.391611 0.926958
v -0.865020 0.399999 -0.925505
v -0.309275 0.443975 0.926761
v -0.055958 0.341913 -0.926136
v -1.532950 0.456207 0.928660
v -1.625120 0.593455 -0.921438
v -0.026229 0.316939 0.926278
v -0.421106 0.460781 -0.925567
v -0.700487 0.411824 0.927040
v -1.041041 0.374393 -0.925776
v -0.213279 0.426423 0.926636
v -0.095292 0.365985 -0.926062
v -1.391235 0.364899 0.926943
v -1.402663 0.376677 -0.925448
v -0.096168 0.358820 0.926407
v -0.213263 0.434012 -0.925831
v -1.041193 0.365981 0.926687
v -0.700751 0.420174 -0.925424
v -0.419447 0.452661 0.926897
v -0.025352 0.324104 -0.926191
v -1.601746 0.571971 0.930761
vn 0.9767 0.2145 -0.0104
vn 0.4886 0.8725 0.0036
vn -0.1441 0.9896 0.0045
vn 0.0071 1.0000 0.0050
vn 0.5117 0.8592 0.0036
vn 0.5116 0.8592 0.0036
vn 0.0068 1.0000 0.0050
vn 0.7190 0.6950 -0.0012
vn 0.5125 0.8587 0.0036
vn 0.1300 0.9915 0.0042
vn -0.1330 0.9911 0.0045
vn 0.7188 0.6952 -0.0012
vn 0.9292 0.3696 -0.0076
vn 0.4958 0.8684 0.0036
vn -0.0359 0.9993 0.0044
vn -0.1300 0.9915 0.0045
vn -0.1498 0.9887 0.0047
vn 0.2784 0.9605 0.0040
vn 0.5815 0.8135 0.0034
vn 0.3634 0.9316 0.0036
vn 0.3637 0.9315 0.0036
vn -0.0360 0.9993 0.0044
vn 0.9293 0.3693 -0.0076
s 1
f 3//2 4//2 33//14 20//14
f 33//14 17//9 12//9 20//14
f 28//19 12//9 17//9 25//19
f 25//19 9//6 8//5 28//19
f 24//18 8//5 9//6 29//18
f 29//18 13//10 16//10 24//18
f 32//22 16//10 13//10 21//15
f 21//15 5//3 6//3 32//22
f 22//16 6//3 5//3 31//16
f 31//16 15//11 14//11 22//16
f 30//17 14//11 15//11 23//17
f 23//17 7//4 10//7 30//17
f 26//20 10//7 7//4 27//21
f 27//21 11//8 18//12 26//20
f 34//23 18//12 11//8 19//13
f 19//13 2//1 1//1 34//23
