# Blender 4.3.2
# www.blender.org
o Book_Page_Animated
v 1.816350 0.199607 0.926241
v 1.816350 0.199607 -0.926241
v 0.000000 0.306080 0.926241
v 0.000000 0.306080 -0.926241
v 0.575279 0.401602 -0.926241
v 0.575279 0.401602 0.926241
v 1.233786 0.275449 -0.926241
v 0.163163 0.358666 0.926241
v 0.163163 0.358666 -0.926241
v 1.233786 0.275449 0.926241
v 1.560077 0.210733 -0.926241
v 0.061217 0.327831 0.926241
v 0.331467 0.392669 -0.926241
v 0.887273 0.359245 0.926241
v 0.887273 0.359245 -0.926241
v 0.331467 0.392669 0.926241
v 0.061217 0.327831 -0.926241
v 1.560077 0.210733 0.926241
v 1.701270 0.199842 -0.926241
v 0.027762 0.316227 0.926241
v 0.444006 0.402368 -0.926241
v 0.723855 0.387539 0.926241
v 1.060194 0.318773 -0.926241
v 0.238063 0.376575 0.926241
v 0.105111 0.341971 -0.926241
v 1.402313 0.237285 0.926241
v 1.402313 0.237285 -0.926241
v 0.105111 0.341971 0.926241
v 0.238063 0.376575 -0.926241
v 1.060194 0.318773 0.926241
v 0.723855 0.387539 -0.926241
v 0.444006 0.402368 0.926241
v 0.027762 0.316227 -0.926241
v 1.701270 0.199842 0.926241
vn -0.0020 -1.0000 -0.0000
vn 0.3433 -0.9392 -0.0000
vn -0.0501 -0.9987 -0.0000
vn -0.2315 -0.9728 -0.0000
vn 0.2545 -0.9671 -0.0000
vn -0.1216 -0.9926 -0.0000
vn 0.3172 -0.9484 -0.0000
vn 0.1279 -0.9918 -0.0000
vn -0.1993 -0.9799 -0.0000
vn -0.0395 -0.9992 -0.0000
vn 0.3355 -0.9420 -0.0000
vn 0.0401 -0.9992 -0.0000
vn -0.1325 -0.9912 -0.0000
vn -0.2350 -0.9720 -0.0000
vn 0.2013 -0.9795 -0.0000
vn 0.2915 -0.9566 -0.0000
vn -0.1935 -0.9811 -0.0000
vt 0.000000 0.000000
vt 0.000000 1.000000
vt 0.015327 1.000000
vt 0.015327 0.000000
vt 0.033747 1.000000
vt 0.033747 0.000000
vt 0.057916 0.000000
vt 0.057916 1.000000
vt 0.089880 1.000000
vt 0.089880 0.000000
vt 0.131119 0.000000
vt 0.131119 1.000000
vt 0.182548 1.000000
vt 0.182548 0.000000
vt 0.244513 0.000000
vt 0.244513 1.000000
vt 0.316792 1.000000
vt 0.316792 0.000000
vt 0.398598 0.000000
vt 0.398598 1.000000
vt 0.488576 1.000000
vt 0.488576 0.000000
vt 0.583788 0.000000
vt 0.583788 1.000000
vt 0.679368 1.000000
vt 0.679368 0.000000
vt 0.772159 0.000000
vt 0.772159 1.000000
vt 0.859025 1.000000
vt 0.859025 0.000000
vt 0.936766 0.000000
vt 0.936766 1.000000
vt 1.000129 1.000000
vt 1.000129 0.000000
s 1
f 3/1/2 4/2/2 33/3/11 20/4/11
f 33/3/11 17/5/7 12/6/7 20/4/11
f 28/7/16 12/6/7 17/5/7 25/8/16
f 25/8/16 9/9/5 8/10/5 28/7/16
f 24/11/15 8/10/5 9/9/5 29/12/15
f 29/12/15 13/13/8 16/14/8 24/11/15
f 32/15/12 16/14/8 13/13/8 21/16/12
f 21/16/12 5/17/3 6/18/3 32/15/12
f 22/19/13 6/18/3 5/17/3 31/20/13
f 31/20/13 15/21/9 14/22/9 22/19/13
f 30/23/14 14/22/9 15/21/9 23/24/14
f 23/24/14 7/25/4 10/26/4 30/23/14
f 26/27/17 10/26/4 7/25/4 27/28/17
f 27/28/17 11/29/6 18/30/6 26/27/17
f 34/31/10 18/30/6 11/29/6 19/32/10
f 19/32/10 2/33/1 1/34/1 34/31/10
