# Blender 4.3.2
# www.blender.org
o Book_Page_Animated
v 1.588569 0.221115 0.928161
v 1.589263 0.222229 -0.924321
v -0.001239 0.304929 0.926240
v 0.001239 0.307231 -0.926240
v 0.415717 0.640225 -0.925680
v 0.414751 0.639654 0.926802
v 1.013985 0.344162 -0.924324
v 0.058186 0.467172 0.926532
v 0.060227 0.468958 -0.925949
v 1.011977 0.343772 0.928156
v 1.335274 0.259123 -0.924397
v 0.021015 0.365964 0.926345
v 0.178783 0.595031 -0.925730
v 0.706927 0.531982 0.927257
v 0.710952 0.531402 -0.925220
v 0.177945 0.594053 0.926752
v 0.023493 0.368267 -0.926134
v 1.334913 0.257955 0.928085
v 1.474770 0.233949 -0.924357
v 0.008636 0.332789 0.926288
v 0.279911 0.639639 -0.925661
v 0.559460 0.605436 0.926884
v 0.856146 0.426350 -0.924618
v 0.102748 0.528592 0.926640
v 0.040572 0.411103 -0.926058
v 1.178738 0.293958 0.928123
v 1.179404 0.294995 -0.924359
v 0.038094 0.408801 0.926421
v 0.104789 0.530378 -0.925841
v 0.852205 0.426841 0.927860
v 0.563161 0.604977 -0.925594
v 0.279073 0.638661 0.926821
v 0.011114 0.335091 -0.926192
v 1.474100 0.232833 0.928125
vn -0.1018 -0.9948 -0.0006
vn 0.9425 -0.3341 0.0008
vn -0.1136 -0.9935 -0.0004
vn -0.1135 -0.9935 -0.0004
vn -0.3753 -0.9269 -0.0006
vn 0.8876 -0.4605 0.0006
vn 0.8877 -0.4605 0.0006
vn -0.2011 -0.9796 -0.0006
vn 0.9330 -0.3600 0.0008
vn 0.5365 -0.8439 -0.0002
vn -0.5178 -0.8555 -0.0009
vn -0.5177 -0.8556 -0.0009
vn -0.1398 -0.9902 -0.0006
vn 0.9398 -0.3419 0.0008
vn 0.2090 -0.9779 -0.0004
vn -0.3407 -0.9402 -0.0005
vn -0.5253 -0.8509 -0.0009
vn 0.7381 -0.6747 0.0001
vn 0.9378 -0.3471 0.0008
vn -0.2551 -0.9669 -0.0006
vn 0.7380 -0.6748 0.0001
vn -0.3408 -0.9401 -0.0005
vn 0.2091 -0.9779 -0.0004
s 1
f 3//2 4//2 33//14 20//14
f 33//14 17//9 12//9 20//14
f 28//19 12//9 17//9 25//19
f 25//19 9//7 8//6 28//19
f 24//18 8//6 9//7 29//21
f 29//21 13//10 16//10 24//18
f 32//23 16//10 13//10 21//15
f 21//15 5//3 6//4 32//23
f 22//16 6//4 5//3 31//22
f 31//22 15//12 14//11 22//16
f 30//17 14//11 15//12 23//17
f 23//17 7//5 10//5 30//17
f 26//20 10//5 7//5 27//20
f 27//20 11//8 18//8 26//20
f 34//13 18//8 11//8 19//13
f 19//13 2//1 1//1 34//13
