# Blender 4.3.2
# www.blender.org
o Book_Page_Animated
v 1.426618 0.258666 0.931422
v 1.433438 0.258904 -0.921048
v -0.001382 0.304215 0.926238
v 0.001382 0.307946 -0.926238
v 0.282032 0.743760 -0.925387
v 0.279976 0.742552 0.927094
v 0.878409 0.453032 -0.922930
v -0.004824 0.477137 0.926593
v -0.002307 0.480184 -0.925885
v 0.870727 0.453440 0.929536
v 1.186183 0.327717 -0.921952
v -0.002643 0.369168 0.926367
v 0.065432 0.640530 -0.925563
v 0.579959 0.663668 0.927811
v 0.587251 0.663250 -0.924655
v 0.063947 0.638778 0.926918
v 0.000121 0.372899 -0.926109
v 1.179687 0.327384 0.930519
v 1.321358 0.285052 -0.921457
v -0.002222 0.333761 0.926297
v 0.148137 0.712072 -0.925430
v 0.427883 0.725078 0.927277
v 0.730264 0.552480 -0.923712
v 0.015479 0.550071 0.926740
v 0.000598 0.419012 -0.926016
v 1.029490 0.383106 0.930045
v 1.036198 0.383306 -0.922425
v -0.002167 0.415281 0.926461
v 0.017996 0.553118 -0.925738
v 0.721625 0.553376 0.928750
v 0.433974 0.725240 -0.925193
v 0.146653 0.710320 0.927051
v 0.000542 0.337492 -0.926180
v 1.314561 0.284809 0.931013
vn -0.2272 -0.9738 -0.0010
vn 0.9996 0.0284 0.0015
vn 0.0576 -0.9983 -0.0006
vn 0.0577 -0.9983 -0.0006
vn -0.4827 -0.8758 -0.0018
vn 0.9936 -0.1129 0.0012
vn -0.3244 -0.9459 -0.0013
vn 1.0000 0.0008 0.0015
vn 0.7788 -0.6273 0.0001
vn -0.4988 -0.8667 -0.0018
vn -0.4987 -0.8668 -0.0018
vn 0.7787 -0.6274 0.0001
vn -0.2643 -0.9644 -0.0011
vn 0.9998 0.0202 0.0015
vn 0.4564 -0.8898 -0.0004
vn -0.2490 -0.9685 -0.0010
vn -0.5855 -0.8106 -0.0023
vn 0.9268 -0.3756 0.0006
vn 0.9998 0.0174 0.0015
vn -0.3763 -0.9265 -0.0014
vn -0.5855 -0.8107 -0.0023
vn -0.2492 -0.9685 -0.0010
vn 0.4565 -0.8897 -0.0004
s 1
f 3//2 4//2 33//14 20//14
f 33//14 17//8 12//8 20//14
f 28//19 12//8 17//8 25//19
f 25//19 9//6 8//6 28//19
f 24//18 8//6 9//6 29//18
f 29//18 13//9 16//12 24//18
f 32//23 16//12 13//9 21//15
f 21//15 5//3 6//4 32//23
f 22//16 6//4 5//3 31//22
f 31//22 15//11 14//10 22//16
f 30//21 14//10 15//11 23//17
f 23//17 7//5 10//5 30//21
f 26//20 10//5 7//5 27//20
f 27//20 11//7 18//7 26//20
f 34//13 18//7 11//7 19//13
f 19//13 2//1 1//1 34//13
