# Blender 4.3.2
# www.blender.org
o Book_Page_Animated
v -1.794337 0.422717 0.928453
v -1.809113 0.433230 -0.923941
v -0.000317 0.306378 0.926234
v 0.000317 0.313680 -0.926234
v -0.563185 0.426830 -0.925477
v -0.561453 0.418665 0.926986
v -1.228212 0.331622 -0.926462
v -0.150183 0.392164 0.926506
v -0.150436 0.399829 -0.925960
v -1.228384 0.323255 0.925999
v -1.568542 0.341676 -0.926030
v -0.058830 0.334606 0.926325
v -0.319779 0.431658 -0.925748
v -0.876288 0.385980 0.926916
v -0.875029 0.394342 -0.925547
v -0.318028 0.423560 0.926716
v -0.058195 0.341909 -0.926143
v -1.559899 0.332572 0.926404
v -1.703641 0.382430 -0.925085
v -0.027054 0.318981 0.926275
v -0.431165 0.438563 -0.925613
v -0.711431 0.404840 0.927055
v -1.049625 0.361725 -0.926012
v -0.221300 0.415122 0.926610
v -0.099115 0.363173 -0.926073
v -1.399777 0.319252 0.926011
v -1.403045 0.327632 -0.926446
v -0.099750 0.355871 0.926395
v -0.221553 0.422787 -0.925856
v -1.051701 0.353304 0.926450
v -0.710986 0.413122 -0.925408
v -0.429414 0.430465 0.926851
v -0.026419 0.326283 -0.926194
v -1.692538 0.372894 0.927336
vn 0.4367 0.8996 0.0018
vn 0.4264 0.9045 0.0037
vn -0.0904 0.9959 0.0045
vn -0.0952 0.9954 0.0045
vn 0.4504 0.8928 0.0037
vn 0.4503 0.8929 0.0037
vn -0.0953 0.9954 0.0045
vn 0.1879 0.9822 0.0039
vn 0.4512 0.8924 0.0037
vn 0.0752 0.9972 0.0042
vn -0.1486 0.9889 0.0044
vn 0.1878 0.9822 0.0039
vn 0.3644 0.9312 0.0026
vn 0.4338 0.9010 0.0037
vn -0.0135 0.9999 0.0044
vn -0.1029 0.9947 0.0044
vn -0.1752 0.9845 0.0043
vn 0.1991 0.9800 0.0041
vn 0.5232 0.8522 0.0035
vn 0.0304 0.9995 0.0045
vn 0.3645 0.9312 0.0026
s 1
f 3//2 4//2 33//14 20//14
f 33//14 17//9 12//9 20//14
f 28//19 12//9 17//9 25//19
f 25//19 9//6 8//5 28//19
f 24//18 8//5 9//6 29//18
f 29//18 13//10 16//10 24//18
f 32//15 16//10 13//10 21//15
f 21//15 5//3 6//3 32//15
f 22//16 6//3 5//3 31//16
f 31//16 15//11 14//11 22//16
f 30//17 14//11 15//11 23//17
f 23//17 7//4 10//7 30//17
f 26//20 10//7 7//4 27//20
f 27//20 11//8 18//12 26//20
f 34//21 18//12 11//8 19//13
f 19//13 2//1 1//1 34//21
