# Blender 4.3.2
# www.blender.org
o Book_Page_Animated
v 0.914703 0.467820 0.939336
v 0.939755 0.474579 -0.912964
v -0.001083 0.303140 0.926236
v 0.001083 0.309020 -0.926236
v -0.110125 0.847942 -0.924893
v -0.113224 0.842940 0.927580
v 0.467529 0.797084 -0.919436
v -0.093189 0.447931 0.926591
v -0.090960 0.453647 -0.925882
v 0.437710 0.792611 0.932800
v 0.698681 0.558885 -0.915968
v -0.037155 0.357171 0.926365
v -0.162097 0.612995 -0.925468
v 0.144731 1.002597 0.929130
v 0.161369 1.010281 -0.923236
v -0.164363 0.608312 0.927007
v -0.034989 0.363051 -0.926107
v 0.671245 0.553285 0.936301
v 0.829353 0.505706 -0.914340
v -0.017716 0.327575 0.926294
v -0.164759 0.723178 -0.925194
v -0.009970 0.957286 0.927965
v 0.340750 0.930218 -0.921242
v -0.125805 0.517610 0.926766
v -0.059442 0.402150 -0.926011
v 0.543873 0.652380 0.934538
v 0.573486 0.656675 -0.917701
v -0.061608 0.396270 0.926461
v -0.123576 0.523326 -0.925706
v 0.314904 0.923649 0.931039
v 0.001365 0.965421 -0.924449
v -0.167025 0.718495 0.927281
v -0.015550 0.333455 -0.926178
v 0.803515 0.499203 0.937951
vn -0.2714 -0.9624 -0.0072
vn 0.8267 0.5627 0.0028
vn 0.8371 -0.5471 0.0004
vn 0.8372 -0.5469 0.0004
vn -0.7633 -0.6459 -0.0136
vn 0.8807 0.4736 0.0025
vn -0.7633 -0.6458 -0.0136
vn -0.5009 -0.8655 -0.0101
vn 0.8419 0.5396 0.0027
vn 0.9772 0.2124 0.0018
vn -0.0740 -0.9972 -0.0055
vn -0.0737 -0.9973 -0.0055
vn 0.9772 0.2123 0.0018
vn -0.3250 -0.9457 -0.0078
vn 0.8313 0.5559 0.0027
vn 0.9814 -0.1920 0.0008
vn 0.5242 -0.8516 -0.0008
vn -0.5811 -0.8137 -0.0108
vn 0.9128 0.4085 0.0023
vn 0.8505 0.5260 0.0027
vn -0.7121 -0.7019 -0.0130
vn -0.7123 -0.7018 -0.0130
vn -0.5813 -0.8136 -0.0108
vn 0.5235 -0.8520 -0.0008
vn 0.9814 -0.1919 0.0008
s 1
f 3//2 4//2 33//15 20//15
f 33//15 17//9 12//9 20//15
f 28//20 12//9 17//9 25//20
f 25//20 9//6 8//6 28//20
f 24//19 8//6 9//6 29//19
f 29//19 13//10 16//13 24//19
f 32//25 16//13 13//10 21//16
f 21//16 5//3 6//4 32//25
f 22//17 6//4 5//3 31//24
f 31//24 15//12 14//11 22//17
f 30//23 14//11 15//12 23//18
f 23//18 7//5 10//7 30//23
f 26//21 10//7 7//5 27//22
f 27//22 11//8 18//8 26//21
f 34//14 18//8 11//8 19//14
f 19//14 2//1 1//1 34//14
