# Blender 4.3.2
# www.blender.org
o Book_Page_Animated
v 1.144548 0.314577 0.935642
v 1.163826 0.312869 -0.916740
v -0.001187 0.303328 0.926236
v 0.001187 0.308832 -0.926236
v 0.045534 0.819445 -0.925079
v 0.042463 0.816580 0.927398
v 0.667253 0.634059 -0.921287
v -0.079785 0.456720 0.926600
v -0.077325 0.461693 -0.925874
v 0.651513 0.633436 0.931129
v 0.949940 0.456289 -0.919019
v -0.031217 0.360937 0.926369
v -0.105951 0.635896 -0.925458
v 0.349909 0.829979 0.928490
v 0.361594 0.832070 -0.923947
v -0.107996 0.632589 0.927020
v -0.028844 0.366440 -0.926104
v 0.932365 0.457004 0.933379
v 1.067111 0.376051 -0.917809
v -0.015086 0.329415 0.926296
v -0.067705 0.736143 -0.925238
v 0.188512 0.850960 0.927702
v 0.517837 0.734122 -0.922535
v -0.097774 0.530870 0.926775
v -0.048935 0.407949 -0.926006
v 0.799254 0.543967 0.932214
v 0.815254 0.544177 -0.920199
v -0.051308 0.402446 0.926467
v -0.095313 0.535843 -0.925699
v 0.502835 0.732863 0.929885
v 0.197603 0.853854 -0.924751
v -0.069750 0.732836 0.927240
v -0.012712 0.334919 -0.926177
v 1.048646 0.377283 0.934581
vn -0.5470 -0.8371 -0.0049
vn 0.8826 0.4702 0.0025
vn 0.4188 -0.9081 -0.0007
vn 0.4190 -0.9080 -0.0007
vn -0.5374 -0.8433 -0.0048
vn 0.9354 0.3535 0.0022
vn -0.5375 -0.8433 -0.0048
vn -0.5560 -0.8312 -0.0050
vn 0.8952 0.4456 0.0025
vn 0.9915 -0.1303 0.0009
vn -0.3399 -0.9404 -0.0034
vn -0.3397 -0.9405 -0.0034
vn 0.9915 -0.1304 0.0009
vn -0.5562 -0.8311 -0.0050
vn 0.8864 0.4629 0.0025
vn 0.7968 -0.6043 -0.0001
vn 0.0482 -0.9988 -0.0014
vn -0.5449 -0.8385 -0.0048
vn 0.9855 0.1697 0.0017
vn 0.8926 0.4508 0.0025
vn -0.5327 -0.8463 -0.0047
vn 0.0479 -0.9989 -0.0014
vn 0.7969 -0.6042 -0.0001
vn -0.5561 -0.8311 -0.0050
s 1
f 3//2 4//2 33//15 20//15
f 33//15 17//9 12//9 20//15
f 28//20 12//9 17//9 25//20
f 25//20 9//6 8//6 28//20
f 24//19 8//6 9//6 29//19
f 29//19 13//10 16//13 24//19
f 32//23 16//13 13//10 21//16
f 21//16 5//3 6//4 32//23
f 22//17 6//4 5//3 31//22
f 31//22 15//12 14//11 22//17
f 30//18 14//11 15//12 23//18
f 23//18 7//5 10//7 30//18
f 26//21 10//7 7//5 27//21
f 27//21 11//8 18//8 26//21
f 34//24 18//8 11//8 19//14
f 19//14 2//1 1//1 34//24
