# Blender 4.3.2
# www.blender.org
o Book_Page_Animated
v -0.708812 0.945495 0.934088
v -0.685399 0.993018 -0.917636
v -0.000546 0.302569 0.926235
v 0.000546 0.309592 -0.926235
v -0.537461 0.517629 -0.925296
v -0.536173 0.509397 0.927168
v -1.134236 0.819301 -0.921938
v -0.137789 0.406643 0.926536
v -0.137384 0.414097 -0.925932
v -1.123039 0.791433 0.930248
v -0.906695 1.109867 -0.916576
v -0.054728 0.338413 0.926339
v -0.296871 0.480894 -0.925653
v -0.850029 0.557291 0.927432
v -0.853753 0.566876 -0.925018
v -0.295916 0.472799 0.926812
v -0.053637 0.345436 -0.926131
v -0.913232 1.061225 0.935205
v -0.773542 1.075318 -0.916657
v -0.025344 0.318655 0.926281
v -0.404568 0.508436 -0.925477
v -0.684217 0.529138 0.927317
v -1.027298 0.644789 -0.924300
v -0.204463 0.441829 0.926662
v -0.091324 0.372013 -0.926052
v -1.072490 0.969589 0.933195
v -1.079017 1.011003 -0.918756
v -0.092415 0.364990 0.926417
v -0.204058 0.449283 -0.925805
v -1.018630 0.629311 0.928074
v -0.685552 0.537403 -0.925146
v -0.403614 0.500341 0.926987
v -0.024252 0.325678 -0.926188
v -0.788002 1.025125 0.935065
vn -0.6953 -0.7182 -0.0261
vn 0.5442 0.8389 0.0035
vn 0.1005 0.9949 0.0043
vn 0.9901 0.1405 -0.0044
vn 0.5758 0.8176 0.0034
vn 0.5757 0.8176 0.0034
vn 0.9900 0.1409 -0.0044
vn 0.1267 -0.9916 -0.0262
vn 0.5672 0.8236 0.0035
vn 0.2849 0.9586 0.0040
vn 0.2877 0.9577 0.0047
vn 0.2879 0.9577 0.0047
vn 0.1273 -0.9915 -0.0262
vn -0.4948 -0.8686 -0.0275
vn 0.5511 0.8344 0.0035
vn 0.1588 0.9873 0.0042
vn 0.1512 0.9885 0.0044
vn 0.6532 0.7572 0.0034
vn 0.3954 0.9185 0.0038
vn 0.6271 0.7789 0.0033
vn 0.7878 -0.6158 -0.0166
vn 0.7875 -0.6161 -0.0166
vn 0.6529 0.7575 0.0034
vn -0.4953 -0.8683 -0.0275
s 1
f 3//2 4//2 33//15 20//15
f 33//15 17//9 12//9 20//15
f 28//20 12//9 17//9 25//20
f 25//20 9//6 8//5 28//20
f 24//19 8//5 9//6 29//19
f 29//19 13//10 16//10 24//19
f 32//16 16//10 13//10 21//16
f 21//16 5//3 6//3 32//16
f 22//17 6//3 5//3 31//17
f 31//17 15//12 14//11 22//17
f 30//23 14//11 15//12 23//18
f 23//18 7//4 10//7 30//23
f 26//21 10//7 7//4 27//22
f 27//22 11//8 18//13 26//21
f 34//24 18//13 11//8 19//14
f 19//14 2//1 1//1 34//24
