# Blender 4.3.2
# www.blender.org
o Book_Page_Animated
v 1.701584 0.213804 0.927270
v 1.701071 0.214428 -0.925212
v -0.000892 0.305495 0.926241
v 0.000892 0.306665 -0.926241
v 0.496972 0.558375 -0.925884
v 0.496416 0.558005 0.926598
v 1.127600 0.332141 -0.925246
v 0.109500 0.437546 0.926437
v 0.110914 0.438468 -0.926044
v 1.126278 0.331889 0.927236
v 1.445818 0.236707 -0.925149
v 0.040237 0.355783 0.926312
v 0.255794 0.531510 -0.925909
v 0.798610 0.473687 0.926833
v 0.800542 0.473679 -0.925648
v 0.255262 0.530951 0.926573
v 0.042021 0.356954 -0.926169
v 1.445771 0.236144 0.927333
v 1.586177 0.219017 -0.925178
v 0.017614 0.328543 0.926273
v 0.363628 0.561661 -0.925869
v 0.642138 0.527991 0.926660
v 0.962048 0.399121 -0.925385
v 0.169667 0.484831 0.926507
v 0.072266 0.391767 -0.926118
v 1.290505 0.276121 0.927303
v 1.291066 0.276603 -0.925179
v 0.070482 0.390596 0.926363
v 0.171081 0.485753 -0.925975
v 0.960137 0.399100 0.927097
v 0.643943 0.528022 -0.925822
v 0.363096 0.561102 0.926613
v 0.019398 0.329713 -0.926208
v 1.586482 0.218403 0.927304
vn -0.0399 -0.9992 -0.0003
vn 0.7797 -0.6261 0.0004
vn -0.1134 -0.9935 -0.0002
vn -0.3485 -0.9373 -0.0004
vn 0.6977 -0.7163 0.0002
vn 0.6978 -0.7163 0.0002
vn -0.1877 -0.9822 -0.0003
vn 0.7621 -0.6474 0.0003
vn 0.3744 -0.9273 -0.0002
vn -0.3740 -0.9274 -0.0004
vn 0.3743 -0.9273 -0.0002
vn -0.0826 -0.9966 -0.0003
vn 0.7745 -0.6325 0.0003
vn 0.1240 -0.9923 -0.0002
vn -0.2655 -0.9641 -0.0003
vn -0.3972 -0.9177 -0.0004
vn 0.5484 -0.8362 -0.0000
vn 0.7624 -0.6471 0.0003
vn -0.2858 -0.9583 -0.0003
vn 0.1241 -0.9923 -0.0002
s 1
f 3//2 4//2 33//13 20//13
f 33//13 17//8 12//8 20//13
f 28//18 12//8 17//8 25//18
f 25//18 9//6 8//5 28//18
f 24//17 8//5 9//6 29//17
f 29//17 13//9 16//11 24//17
f 32//20 16//11 13//9 21//14
f 21//14 5//3 6//3 32//20
f 22//15 6//3 5//3 31//15
f 31//15 15//10 14//10 22//15
f 30//16 14//10 15//10 23//16
f 23//16 7//4 10//4 30//16
f 26//19 10//4 7//4 27//19
f 27//19 11//7 18//7 26//19
f 34//12 18//7 11//7 19//12
f 19//12 2//1 1//1 34//12
