# Blender 4.3.2
# www.blender.org
o Book_Page_Animated
v 0.147502 0.801474 0.935323
v 0.193672 0.813327 -0.916546
v -0.000774 0.302758 0.926235
v 0.000774 0.309403 -0.926235
v -0.408566 0.727541 -0.924930
v -0.409529 0.720121 0.927537
v -0.183948 1.236574 -0.918466
v -0.122490 0.423608 0.926560
v -0.121237 0.430562 -0.925909
v -0.206170 1.204640 0.933583
v 0.134325 1.064103 -0.915892
v -0.049023 0.346261 0.926351
v -0.256178 0.537281 -0.925564
v -0.501618 1.025492 0.929050
v -0.497845 1.045004 -0.923295
v -0.257234 0.530134 0.926905
v -0.047475 0.352906 -0.926119
v 0.093848 1.042388 0.935997
v 0.183558 0.931214 -0.916062
v -0.022904 0.322352 0.926287
v -0.333854 0.619177 -0.925292
v -0.481710 0.853361 0.927900
v -0.378205 1.198986 -0.920855
v -0.179406 0.474819 0.926714
v -0.080791 0.384792 -0.926033
v -0.033271 1.148468 0.935166
v -0.000441 1.177531 -0.916776
v -0.082339 0.378147 0.926437
v -0.178153 0.481773 -0.925755
v -0.389466 1.170780 0.931344
v -0.481079 0.866944 -0.924524
v -0.334910 0.612030 0.927177
v -0.021356 0.328998 -0.926183
v 0.139531 0.913911 0.935807
vn -0.9966 -0.0782 -0.0249
vn 0.6629 0.7487 0.0032
vn 0.8547 0.5192 0.0029
vn 0.8546 0.5192 0.0029
vn -0.0626 -0.9979 -0.0178
vn 0.7103 0.7039 0.0031
vn -0.8190 -0.5732 -0.0250
vn 0.6834 0.7301 0.0032
vn 0.6556 0.7551 0.0033
vn 0.9618 -0.2737 -0.0014
vn 0.9618 -0.2738 -0.0014
vn -0.8188 -0.5735 -0.0250
vn -0.9770 -0.2117 -0.0252
vn 0.6691 0.7432 0.0032
vn 0.7767 0.6299 0.0029
vn 0.9564 0.2921 0.0026
vn 0.5223 -0.8527 -0.0101
vn 0.6252 0.7805 0.0034
vn 0.7211 0.6929 0.0031
vn -0.4836 -0.8750 -0.0221
vn -0.4838 -0.8749 -0.0221
vn 0.6252 0.7804 0.0034
vn 0.9565 0.2916 0.0026
vn -0.9771 -0.2115 -0.0252
s 1
f 3//2 4//2 33//14 20//14
f 33//14 17//8 12//8 20//14
f 28//19 12//8 17//8 25//19
f 25//19 9//6 8//6 28//19
f 24//18 8//6 9//6 29//22
f 29//22 13//9 16//9 24//18
f 32//15 16//9 13//9 21//15
f 21//15 5//3 6//4 32//15
f 22//16 6//4 5//3 31//23
f 31//23 15//11 14//10 22//16
f 30//17 14//10 15//11 23//17
f 23//17 7//5 10//5 30//17
f 26//20 10//5 7//5 27//21
f 27//21 11//7 18//12 26//20
f 34//24 18//12 11//7 19//13
f 19//13 2//1 1//1 34//24
